<?xml version="1.0" encoding="utf-8"?>
<!-- Generator: Adobe Illustrator 19.0.0, SVG Export Plug-In . SVG Version: 6.00 Build 0)  -->
<svg version="1.1" id="Layer_1" xmlns="http://www.w3.org/2000/svg" xmlns:xlink="http://www.w3.org/1999/xlink" x="0px" y="0px"
	 viewBox="-453 -383 674 588" style="enable-background:new -453 -383 674 588;" xml:space="preserve">
<style type="text/css">
	.st0{fill:url(#SVGID_1_);}
	.st1{fill:url(#SVGID_2_);}
	.st2{fill:url(#SVGID_3_);}
	.st3{fill:url(#SVGID_4_);stroke:url(#SVGID_5_);stroke-width:2.3027;stroke-miterlimit:10;}
	.st4{fill:url(#SVGID_6_);}
	.st5{fill:url(#SVGID_7_);}
	.st6{fill:url(#SVGID_8_);}
	.st7{fill:url(#SVGID_9_);}
	.st8{fill:url(#SVGID_10_);}
	.st9{fill:url(#SVGID_11_);}
	.st10{fill:url(#SVGID_12_);}
	.st11{fill:none;}
	.st12{fill:url(#SVGID_13_);}
	.st13{fill:#E20752;}
</style>
<g>
	
		<radialGradient id="SVGID_1_" cx="-205.9235" cy="116.5307" r="114.2785" gradientTransform="matrix(1 0 0 -1 0 150)" gradientUnits="userSpaceOnUse">
		<stop  offset="0" style="stop-color:#7FFFC4"/>
		<stop  offset="0.8999" style="stop-color:#0050FF"/>
	</radialGradient>
	<path class="st0" d="M-95.9,40.1c-2.1-1.3-5.2-2.4-9-3.6c-2.7-0.8-5.7-1.6-9-2.3c2.1-0.5,4-1.1,5.8-1.6c6.3-2,12.5-4.6,12.1-9.4
		c-0.3-2.4-2.1-4.1-5.5-5.2c-2.1-0.7-5.2-1.3-9-1.5c-2-0.2-4.1-0.3-6.4-0.4c3.2-1.4,6.2-2.9,8.8-4.2c9.5-5.1,13.1-9,11.7-13
		c-0.8-2.3-3-3.7-6.8-4.1c-2.4-0.3-5.7-0.1-9.8,0.4c-2.8,0.4-5.8,0.9-9,1.5c2-1.5,3.8-3,5.3-4.3c2.8-2.4,4.9-4.7,6.3-6.4
		c2.1-2.9,2.5-5.4,1.3-7.4s-3.6-3-7.2-2.6c-2.3,0.3-5.3,1-8.8,2.2c-2,0.7-4.1,1.5-6.4,2.5c2.2-2.5,4.2-4.8,5.9-7.1
		c2.5-3.2,4.2-6,5.3-8.2c1.5-3.4,1.5-6.1-0.1-8c-1.6-1.8-4.3-2.1-7.9-1c-2.3,0.8-5.3,2.2-8.8,4.4c-2.4,1.4-5,3.2-7.7,5.2
		c1.2-2.1,2.2-4.1,3-6c1.6-3.4,2.6-6.3,3-8.5c0.7-3.5,0.1-5.9-1.8-7.3c-1.9-1.4-4.5-1.3-7.5,0.5c-2,1.2-4.4,3-7.1,5.6
		c-1.5,1.4-3.1,3-4.7,4.7c1-3.1,1.9-6.2,2.5-8.9c1-3.9,1.4-7.2,1.4-9.7c0-3.8-1.1-6.2-3.3-7.2s-4.8-0.2-7.7,2.4
		c-1.9,1.7-4,4.3-6.4,7.8c-1.6,2.4-3.3,5.1-5,8.1c0.2-2.3,0.3-4.5,0.4-6.4c0.1-3.8-0.1-6.7-0.6-9c-0.7-3.5-2.3-5.5-4.7-6
		c-4.8-1-8.1,5.1-10.7,11.2c-0.7,1.8-1.5,3.8-2.2,5.8c-0.4-3.4-0.8-6.4-1.3-9.2c-0.7-3.9-1.6-7.2-2.6-9.4c-1.5-3.4-3.5-5.2-6-5.2
		c-2.4,0-4.5,1.7-6,5.2c-1,2.2-1.9,5.4-2.6,9.3c-0.5,2.8-1,5.8-1.3,9.1c-0.8-2.1-1.5-4.2-2.3-6.1c-2.6-6.2-6-12.3-10.7-11.3
		c-2.3,0.5-3.9,2.5-4.7,6c-0.4,2.2-0.7,5.3-0.6,9c0,2.1,0.2,4.3,0.4,6.7c-1.7-3-3.4-5.6-5-8c-2.3-3.4-4.5-6-6.3-7.7
		c-2.8-2.6-5.4-3.4-7.6-2.4s-3.4,3.4-3.3,7.2c0,2.5,0.5,5.7,1.4,9.7c0.6,2.7,1.5,5.6,2.5,8.8c-1.7-1.8-3.3-3.4-4.8-4.9
		c-2.8-2.5-5.1-4.4-7.1-5.6c-3-1.8-5.6-2-7.5-0.5c-2,1.4-2.5,3.9-1.8,7.3c0.4,2.2,1.5,5.1,3.1,8.5c0.9,1.9,2,4,3.1,6.2
		c-2.7-2-5.3-3.7-7.6-5.1c-3.5-2.1-6.4-3.6-8.8-4.4c-3.6-1.2-6.2-0.9-7.9,1c-2.8,3.1-1.2,8.1,5.5,16.7c1.9,2.4,4.1,5,6.5,7.7
		c-1.8-0.7-3.5-1.3-5.1-1.9c-6.3-2.1-12.9-3.8-15.3,0.4s2.2,9.1,7.2,13.4c1.3,1.1,2.6,2.2,4.1,3.4c-3.5-0.8-6.9-1.3-9.9-1.8
		c-4.1-0.5-7.5-0.7-10-0.4c-3.9,0.4-6.2,1.7-6.9,4.1c-0.7,2.2,0.2,4.7,2.9,7.1c1.7,1.5,4.2,3.3,7.5,5.1c2.4,1.3,5.3,2.8,8.3,4.2
		c-1.4,0.1-2.8,0.2-4,0.4c-5.4,0.6-11.6,1.9-12,6.4c-0.5,5,6.4,7.7,13.3,9.7c1.9,0.5,3.9,1.1,6.2,1.6c-4.7,0.9-9,1.9-12.8,3
		c-10.5,3-14.8,6.1-14.3,10.3c0.3,2.4,2.1,4.3,5.7,5.4c2.3,0.7,5.6,1.3,9.6,1.6c2.8,0.2,5.8,0.4,9,0.4c-2.2,1.1-4.3,2.1-6.2,3.1
		c-3.2,1.8-5.7,3.5-7.4,5c-2.6,2.4-3.6,4.7-2.9,7c0.7,2.2,3,3.6,6.4,4c0.8,0.1,1.7,0.1,2.7,0.1c1.9,0,4-0.2,6.4-0.4
		c2.1-0.3,4.5-0.6,6.9-1.1c-2.7,2-5.1,3.9-7.3,5.6c-3,2.7-5.4,5-6.9,7c-2.2,3-2.8,5.6-1.5,7.8c1.1,1.8,3,2.7,5.7,2.7
		c0.5,0,1,0,1.6-0.1c2.4-0.3,5.5-1,9.1-2.3c2.4-0.8,5-1.9,7.8-3c-2,2.2-3.8,4.5-5.3,6.4c-2.3,3.1-4,5.8-5,8c-1.5,3.3-1.4,6,0.2,7.8
		c1,1.1,2.3,1.7,4.1,1.7c1.1,0,2.2-0.2,3.6-0.6c2.2-0.7,5.1-2.1,8.5-4.2c2.1-1.3,4.5-2.9,7-4.6c-1.5,2.6-2.8,5.1-3.9,7.4
		c-1.7,3.6-2.8,6.5-3.2,8.9c-0.7,3.6-0.2,6.2,1.8,7.5c0.9,0.6,1.9,0.9,3,0.9c1.4,0,3.1-0.5,4.9-1.6c2.1-1.3,4.7-3.3,7.6-6.1
		c2-1.9,4.1-4,6.3-6.4c-0.7,2.5-1.4,4.8-1.9,7c-0.9,3.7-1.3,6.7-1.3,9c0,3.6,1.2,5.9,3.3,6.9c0.6,0.3,1.3,0.4,2,0.4
		c1.7,0,3.5-0.8,5.4-2.5c1.7-1.5,3.7-3.9,5.8-7c1.3-1.8,2.6-3.9,3.9-6c-0.4,3.2-0.5,6.3-0.6,9c-0.1,4,0.1,7.3,0.6,9.7
		c0.7,3.7,2.3,5.7,4.7,6.3c0.4,0.1,0.7,0.1,1.1,0.1c3.7,0,6.9-4.1,10.7-13.3c1.3-3.4,2.8-7.3,4-11.6c0.3,2.5,0.6,4.8,1,7
		c1.3,7.2,3.2,14.4,8.3,14.4c4.7,0,6.6-6.2,7.8-11.6c0.4-1.4,0.6-3,0.9-4.7c1.1,3,2.1,5.8,3.1,8.3c1.4,3.4,3,6.1,4.3,7.9
		c1.8,2.4,3.7,3.6,5.6,3.6c0.4,0,0.7,0,1-0.1c2.4-0.5,4-2.7,4.8-6.4c0.5-2.5,0.7-5.8,0.5-9.9c-0.1-3-0.4-6.3-0.7-9.9
		c1.1,1.7,2.1,3.2,3,4.7c3.2,4.6,6.9,9,10.7,9c0.6,0,1.3-0.2,2-0.4c4.5-2,3.5-8.9,2.1-15.3c-0.4-1.7-0.9-3.6-1.4-5.5
		c2.4,2.7,4.7,5.1,6.9,7.3c5.7,5.6,9.9,8.1,13,8.1c1.1,0,2.1-0.4,3-1c3.4-2.5,2.8-7.7-2-17.5c-1.3-2.9-3-5.9-4.9-9.1
		c1.4,1,2.8,1.8,4.1,2.6c3.8,2.2,7.7,4.3,10.9,4.3c1.5,0,2.9-0.4,3.9-1.6c3.2-3.6-0.3-9.3-4.1-14.4c-0.9-1.2-1.9-2.5-3-3.8
		c3.4,1.5,6.6,2.9,9.6,3.9c5.2,1.9,9,2.8,11.9,2.8c2.8,0,4.7-0.9,5.6-2.7c1.3-2.1,0.7-4.7-1.5-7.8c-1.4-2-3.8-4.4-6.9-7
		c-2.1-1.8-4.6-3.7-7.3-5.6c2.5,0.4,4.8,0.9,7,1.2c2.4,0.3,4.7,0.4,6.4,0.4c1,0,1.9,0,2.7-0.1c3.6-0.4,5.7-1.7,6.4-4
		c0.7-2.2-0.2-4.7-2.9-7c-1.7-1.5-4.2-3.2-7.4-5c-1.9-1.1-3.9-2.1-6.2-3.1c3.3,0,6.4-0.1,9-0.4c4-0.4,7.3-0.9,9.6-1.6
		c3.6-1.2,5.5-3,5.7-5.4C-91.2,44.1-92.7,41.9-95.9,40.1z"/>
	
		<radialGradient id="SVGID_2_" cx="-204.4453" cy="114.5158" r="23.6549" gradientTransform="matrix(1 0 0 -1 0 150)" gradientUnits="userSpaceOnUse">
		<stop  offset="0" style="stop-color:#EFFF00"/>
		<stop  offset="2.074015e-02" style="stop-color:#EEF808"/>
		<stop  offset="0.2363" style="stop-color:#E3B452"/>
		<stop  offset="0.4387" style="stop-color:#DA7C8F"/>
		<stop  offset="0.6219" style="stop-color:#D24FBF"/>
		<stop  offset="0.7823" style="stop-color:#CD2FE2"/>
		<stop  offset="0.9138" style="stop-color:#CA1CF7"/>
		<stop  offset="1" style="stop-color:#C915FF"/>
	</radialGradient>
	<path class="st1" d="M-184.9,29.1c-0.7-2.2,1.3-6,0-7.9c-1.3-1.9-5.6-1-7.5-2.4c-1.9-1.3-2.3-5.6-4.6-6.4c-2.1-0.7-5,2.4-7.4,2.4
		c-2.4,0-5.3-3.1-7.4-2.4c-2.2,0.7-2.7,5-4.6,6.4c-1.9,1.3-6.1,0.5-7.5,2.4c-1.3,1.9,0.7,5.6,0,7.9c-0.7,2.1-4.7,3.9-4.7,6.4
		c0,2.4,3.9,4.2,4.7,6.4c0.7,2.2-1.3,6,0,7.9c1.3,1.9,5.6,1,7.5,2.4c1.9,1.3,2.3,5.6,4.6,6.4c2.1,0.7,5-2.4,7.4-2.4
		c2.4,0,5.3,3.1,7.4,2.4c2.2-0.7,2.7-5,4.6-6.4c1.9-1.3,6.1-0.5,7.5-2.4c1.3-1.9-0.7-5.6,0-7.9c0.7-2.1,4.7-3.9,4.7-6.4
		C-180.3,33.1-184.2,31.3-184.9,29.1z"/>
	
		<radialGradient id="SVGID_3_" cx="-204.8035" cy="115.5904" r="106.0248" gradientTransform="matrix(1 0 0 -1 0 150)" gradientUnits="userSpaceOnUse">
		<stop  offset="2.743676e-03" style="stop-color:#FF2A42"/>
		<stop  offset="1" style="stop-color:#EBFF55"/>
	</radialGradient>
	<path class="st2" d="M-103.5,25.2c-3.9,1.9-13.3,4.8-29.5,6.9c-0.7-0.1-1.3-0.2-2.1-0.3c-8.1-0.9-15.8-1.3-22.5-1.3
		c6.5-1.3,14.1-3.4,21.8-5.9C-119,23.2-108.1,24.1-103.5,25.2z M-204.8,4.3L-204.8,4.3 M-195.4,64.4L-195.4,64.4L-195.4,64.4
		L-195.4,64.4z M-175,25.9C-175,25.9-175.1,25.9-175,25.9c0.1,0.1,0.3,0.1,0.5,0.1l0,0c7.3,0.3,21.7-2.8,36.6-7.6l0.4-0.1l0,0
		c9.5-3,18.4-6.6,25.2-10c5-2.5,7.7-4.4,9.1-5.6c-4.9-0.3-17,1.3-35.2,7l0,0c-0.7,0.2-1.3,0.4-2.1,0.6
		C-156,15.2-169.5,21.4-175,25.9 M-145-3.5c-0.4,0.4-0.7,0.7-1.2,1.1c-6,5.5-12,10.3-17.5,14.2c6.1-2.8,13.3-5.5,21-8.1
		c0.5-0.2,1.2-0.4,1.7-0.5c7.4-4.5,14.2-9.1,19.2-13.3c3.4-2.8,5.3-4.7,6.4-6.1C-119.9-15.3-130.3-11.6-145-3.5z M-181.4,14.6
		c6.6-2.5,18.7-11.2,30.7-22c0.4-0.4,1-0.9,1.4-1.3l0,0c14.2-13.1,21.7-22.8,23.9-27.2c-4.6,1.7-15.1,8.1-29.6,21l0,0
		c-0.4,0.4-0.9,0.8-1.3,1.3C-168.4-2.8-178.3,8.3-181.4,14.6c-0.1,0.1-0.2,0.1-0.2,0.2C-181.5,14.6-181.4,14.6-181.4,14.6
		 M-166-24.5c-0.2,0.5-0.4,1-0.6,1.5c-3.3,7.4-6.8,14.3-10.2,20.1c4.5-5,9.9-10.5,15.9-15.8c0.4-0.4,0.7-0.6,1.1-1
		c4.9-7.1,9.3-14.1,12.2-19.9c2-3.9,2.9-6.5,3.3-8.1c-1.4,0.9-3.5,2.6-6.6,5.6C-155.5-37.6-160.8-31.3-166-24.5z M-180.3-30.1
		L-180.3-30.1c-0.2,0.3-0.3,0.6-0.4,0.9c-6.5,14.6-11,28.7-11.5,35.8c0,0.2,0,0.3,0,0.4L-192,7c5-5,12.5-17.8,19.2-32.7
		c0.3-0.6,0.5-1.3,0.8-1.8l0,0c7.7-17.6,10.5-29.6,10.7-34.5c-1.3,1.3-3.4,3.7-6.4,8.3C-171.8-47.4-176.2-39-180.3-30.1z
		 M-193.8-35.3c0,0.6,0,1.2,0,1.8c0,8.1-0.4,15.8-1.1,22.5c2.1-6.4,4.8-13.6,8.1-21c0.1-0.2,0.2-0.4,0.3-0.5
		c3.2-16.4,3.5-27.2,2.9-32C-186-60.7-190-51.5-193.8-35.3z M-200.6-35.6c-0.2-19.2-2.5-31.2-4.3-35.7c-1.8,4.5-4.1,16.5-4.3,35.6
		c0,0.7,0,1.5,0,2.2c0,16.2,1.7,31.3,4.3,37.8c2.6-6.4,4.3-21.6,4.3-37.8C-200.5-34.2-200.5-34.9-200.6-35.6 M-223.2-32.8
		c0.1,0.3,0.3,0.5,0.4,0.8c3.3,7.4,6.1,14.6,8.1,21c-0.7-6.6-1.1-14.3-1.1-22.5c0-0.6,0-1.3,0-1.9c-3.9-16.5-7.9-25.8-10.2-29.6
		C-226.7-60.2-226.5-49.3-223.2-32.8z M-229.5-30.3c-4-8.9-8.4-17.2-12.4-23.4c-3-4.6-5-7-6.4-8.2c0.3,4.9,3,16.7,10.7,34.3
		c0.3,0.6,0.5,1.3,0.9,2C-230.1-10.8-222.6,2-217.6,7l0.1,0.1c0-0.1,0-0.3,0-0.4c-0.4-7.2-4.9-21.2-11.5-35.9
		C-229.2-29.6-229.3-30-229.5-30.3 M-265.6-48.1c1.3,4.5,6,14.4,15.7,28.2c0.4,0.4,0.8,0.7,1.3,1.1c6,5.5,11.6,10.9,15.9,15.8
		c-3.4-5.8-6.9-12.6-10.2-20.1c-0.3-0.5-0.4-1.1-0.7-1.6c-5.2-6.9-10.7-13.3-15.2-17.7C-262-45.5-264.3-47.2-265.6-48.1z
		 M-254.8-15.1c-14.3-12.7-24.8-19.1-29.5-20.8c0.8,1.6,2.5,4.5,6.1,8.9c4.8,5.8,11.5,12.8,18.9,19.4l0,0l0.3,0.3
		c11.9,10.7,23.9,19.3,30.6,21.9l0,0c0.1,0,0.2,0.1,0.4,0.1c0-0.1-0.1-0.1-0.1-0.2c-3.2-6.4-13.2-17.5-25.2-28.3
		C-253.8-14.2-254.2-14.7-254.8-15.1 M-267.6,3.6l0.4,0.2c7.7,2.5,15,5.3,21,8.1c-5.5-3.9-11.5-8.8-17.5-14.2
		c-14.1-7.9-23.5-11-27.8-11.9C-288.4-11-281.2-4.6-267.6,3.6z M-276.4,16.8c1.5,0.5,3.1,1.1,4.7,1.6c18,5.8,31.4,8,37.3,7.6
		l-0.1-0.1 M-234.6,25.8c-5.5-4.5-19.1-10.7-34.5-15.7L-270,10l0,0c-9.4-3-18.5-5.3-26-6.5c-5.5-0.9-8.7-1-10.5-0.8
		c3.4,2.8,12.7,8.1,30,14.1 M-270,31.2c0.5,0.1,1.1,0.1,1.5,0.2c5.8-0.4,11.4-0.7,16.4-0.6c-6.5-1.3-14.1-3.4-21.8-5.9
		c-1.4-0.4-3-1-4.4-1.4c-13-0.9-21-0.2-24.7,0.7C-298.4,26.2-287.4,29.3-270,31.2z M-268.2,38.1c-1.9,0.2-3.9,0.4-5.7,0.5
		c-20.1,2.1-32.6,5.8-37.2,8.1c4.7,1.3,16.7,2.3,35.7,0.5l0,0c0.8-0.1,1.6-0.2,2.3-0.3c16.3-1.7,30.8-4.9,37.1-8.1l0,0
		c-0.7-0.2-1.8-0.4-3-0.6C-245.7,37.2-256.4,37.1-268.2,38.1 M-271.4,61.4c0.4-0.3,0.9-0.5,1.3-0.7c7.1-4,13.9-7.6,20.1-10.3
		c-6.5,1.4-14.1,2.6-22.3,3.5c-0.7,0.1-1.3,0.2-2.1,0.2c-8.1,2.9-15.8,6-21.5,9c-3.9,2.1-6.2,3.6-7.5,4.7
		C-298.6,67.7-287.6,66.3-271.4,61.4z M-268.3,67.4c-16.7,9.8-26.1,17.8-29.1,21.7c4.7-0.7,15.8-4.6,32-13.5l0,0c1-0.5,2-1.1,3-1.7
		c14.1-8.1,26.1-17,30.5-22.6c0,0,0,0,0-0.1c-0.1,0-0.2,0-0.3,0l0,0c-7.1,1.2-20.6,7.1-34.6,15.1C-267.3,66.7-267.8,67-268.3,67.4
		 M-256.1,87.4c0.6-0.8,1.2-1.7,1.8-2.5c4.7-6.5,9.7-12.5,14.1-17.6c-5.4,3.9-11.9,8.1-18.9,12.2c-0.9,0.5-1.8,1-2.7,1.5
		c-13.3,12.4-20.3,21.8-22.5,26C-279.8,105.4-269.8,99.4-256.1,87.4z M-230.3,102.9c0.2-0.7,0.3-1.4,0.4-2.1
		c1.7-8,3.7-15.4,5.7-21.8c-3.3,5.8-7.5,12.3-12.4,18.9c-0.4,0.5-0.7,1-1.1,1.5c-6.7,15.8-9.3,26.7-9.6,31.3c1.2-1.2,3-3.3,5.5-7.2
		C-238.1,118.2-234.1,110.9-230.3,102.9z M-211,69c-0.1-1.2-0.2-2.1-0.3-2.8c0,0,0,0,0,0.1l0,0c-3.9,5.9-8.6,20.1-12,36
		c-0.2,0.8-0.4,1.6-0.5,2.4l0,0c-3.8,18.6-3.9,30.7-3.2,35.5c2.8-4.3,7.9-16.4,12.1-36.1c0.4-1.5,0.6-3,0.9-4.6
		C-211.7,87.2-210.6,75.9-211,69 M-203.6,136.3c1.3-3.8,3-11.9,3.6-25.7c-0.4-1.7-0.8-3.4-1.2-5.1c-1.7-8-3-15.7-3.6-22.3
		c-0.5,5.3-1.4,11.1-2.6,17.3c0,0.4,0,0.9,0,1.3c0,9.2,0.6,18.2,1.6,25.3C-205,131.7-204.3,134.6-203.6,136.3z M-186,103.5
		c-0.1-0.4-0.2-0.8-0.3-1.2c-3.4-15.9-8.1-30.1-12-36l0,0c0,0,0-0.1-0.1-0.1c-1,5.7-0.3,19.3,3.7,37.9c0.4,1.8,0.8,3.7,1.3,5.5
		c4.1,17.4,8.4,27,10.8,30.6c0.3-1.8,0.5-4.9,0.3-10.4C-182.8,122.3-184,112.9-186,103.5 M-164.1,127.4c-0.4-4.5-2.6-14.1-9-29.4
		l-0.1-0.1c-4.7-6.5-9-13.1-12.4-18.9c2.1,6.4,4.1,13.8,5.7,21.8c0.1,0.3,0.1,0.5,0.2,0.8C-172.7,116.3-167,124.2-164.1,127.4z
		 M-142,122.1c-1.3-4.9-7-16.8-18.8-33l0,0l0,0l0,0c-9.5-13-19.4-23.9-25.4-27.8c-0.1-0.1-0.2-0.1-0.3-0.2c0,0.1,0.1,0.3,0.1,0.4
		c1.9,6.9,9.2,19.8,18.6,32.7l0.3,0.4l0,0c5.8,8,12,15.4,17.3,20.7C-146.1,119-143.6,121.1-142,122.1z M-131.6,101.5
		c-2.1-3.9-7.9-11.4-19.2-21.9c-7-4-13.3-8.1-18.7-12.1c4.5,4.9,9.2,10.8,13.9,17.3C-143.8,94.9-135.7,99.8-131.6,101.5z
		 M-177.5,51.2c-0.1,0-0.2,0-0.3,0c0.1,0.1,0.1,0.2,0.2,0.2 M-177.6,51.4c4.5,5.6,16.5,14.3,30.4,22.4l0.1,0.1 M-147,73.9
		c8.7,5,17.4,9.2,24.4,12c5.3,2.1,8.5,2.9,10.4,3.1c-3-3.9-12.4-11.9-29-21.7c-0.5-0.4-1.1-0.6-1.6-1c-14-8.1-27.6-14.1-34.6-15.1
		 M-113.7,63c-5.7-3-13.3-6.2-21.5-9c-0.7-0.1-1.3-0.1-2.1-0.2c-8.1-0.9-15.8-2.1-22.3-3.5c6.1,2.7,13,6.2,20.1,10.3
		c0.4,0.3,0.9,0.5,1.3,0.8c16.3,5,27.3,6.4,32,6.3C-107.6,66.6-109.8,65-113.7,63z M-98.5,46.8c-4.3-2.2-15.9-5.7-34.8-8
		c-0.8-0.1-1.6-0.2-2.4-0.3c-13.4-1.4-30.4-1.9-38.1,0.3l0,0c6.3,3.2,20.8,6.4,37.1,8.1c0.8,0.1,1.6,0.2,2.4,0.3l0,0
		C-115.3,49.1-103.2,48-98.5,46.8z M-223.4,63.8c0.4-1.1,0.7-2,0.9-2.7h-0.1l0,0c-6,3.8-16.1,14.6-25.9,27.8c-0.5,0.6-1,1.3-1.4,2
		l0,0c-11.2,15.3-16.4,26.2-17.6,30.9c4.3-2.7,14-11.6,26-27.8c0.9-1.3,1.9-2.5,2.8-3.8C-231.7,80.1-225.9,70.2-223.4,63.8"/>
</g>
<g>
	
		<radialGradient id="SVGID_4_" cx="-205.4997" cy="-127.0163" r="88.6326" gradientTransform="matrix(0.9938 0.1114 -0.1114 0.9938 -14.7306 23.1967)" gradientUnits="userSpaceOnUse">
		<stop  offset="0.1686" style="stop-color:#B11BF1"/>
		<stop  offset="1" style="stop-color:#ACFF7F"/>
	</radialGradient>
	
		<radialGradient id="SVGID_5_" cx="-205.4997" cy="-127.0163" r="91.3597" gradientTransform="matrix(0.9938 0.1114 -0.1114 0.9938 -14.7306 23.1967)" gradientUnits="userSpaceOnUse">
		<stop  offset="8.703807e-02" style="stop-color:#0071BC"/>
		<stop  offset="0.1634" style="stop-color:#22B573"/>
		<stop  offset="0.3391" style="stop-color:#FCEE21"/>
		<stop  offset="0.5199" style="stop-color:#EA6044"/>
		<stop  offset="0.6642" style="stop-color:#D4145A"/>
		<stop  offset="0.8273" style="stop-color:#813A87"/>
		<stop  offset="1" style="stop-color:#0071BC"/>
	</radialGradient>
	<path class="st3" d="M-169.6-116.7L-169.6-116.7c-6-1-12.6-2.1-17.3-5.5c-1.1-0.6-2.1-1.3-3.1-2c1.1-0.5,2.3-0.9,3.5-1.3
		c5.3-2.3,12-1.9,18.1-1.6l0,0c11.1,0.1,22-0.5,29.7-8.1c8.1-6.8,13.2-20.6,20.7-28.7c-11.1,0.1-24.6-5.6-35.1-4.3
		c-10.8,0.5-18.6,8.1-26.1,16.3l0,0c-3.9,4.7-8.1,9.8-13.4,12.2c-1.1,0.6-2.2,1.2-3.3,1.7c0.2-1.2,0.3-2.4,0.6-3.6
		c0.7-5.8,4.4-11.3,7.7-16.4l0,0c5.6-9.6,10.6-19.3,7.9-29.8c-1.8-10.4-11.3-21.7-14.5-32.3c-5.5,9.6-17.2,18.5-21.3,28.3
		c-4.9,9.7-2.3,20.2,1.1,30.8l0,0c2.1,5.7,4.5,12,3.9,17.7c0,1.2-0.1,2.4-0.2,3.6c-1-0.7-1.9-1.5-2.8-2.4
		c-4.7-3.5-7.6-9.4-10.4-14.9l0,0c-5.5-9.7-11.4-18.8-21.9-21.7c-9.9-3.6-24.4-1.1-35.2-3.6c5.6,9.5,7.4,24.2,13.9,32.6
		c5.9,9.1,16.4,12.1,27.2,14.5l0,0c6,1,12.6,2.1,17.3,5.5c1.1,0.6,2.1,1.3,3.1,2c-1.1,0.5-2.3,0.9-3.5,1.3c-5.3,2.3-12,1.9-18.1,1.6
		l0,0c-11.1-0.1-22,0.5-29.7,8.1c-8.1,6.8-13.2,20.6-20.7,28.7c11.1-0.1,24.6,5.6,35.1,4.3c10.8-0.5,18.6-8.1,26.1-16.3l0,0
		c3.9-4.7,8.1-9.8,13.4-12.2c1.1-0.6,2.2-1.2,3.3-1.7c-0.2,1.2-0.3,2.4-0.6,3.6c-0.7,5.8-4.4,11.3-7.7,16.4l0,0
		c-5.6,9.6-10.6,19.3-7.9,29.8c1.8,10.4,11.3,21.7,14.5,32.3c5.5-9.6,17.2-18.5,21.3-28.3c4.9-9.7,2.3-20.2-1.1-30.8l0,0
		c-2.1-5.7-4.5-12-3.9-17.7c0-1.2,0.1-2.4,0.2-3.6c1,0.7,1.9,1.5,2.8,2.4c4.7,3.5,7.6,9.4,10.4,14.9l0,0
		c5.5,9.7,11.4,18.8,21.9,21.7c9.9,3.6,24.4,1.1,35.2,3.6c-5.6-9.5-7.4-24.2-13.9-32.6C-148.3-111.4-158.7-114.3-169.6-116.7z"/>
</g>
<g>
	
		<radialGradient id="SVGID_6_" cx="79.769" cy="164.5538" r="74.6026" gradientTransform="matrix(1 0 0 -1 0 150)" gradientUnits="userSpaceOnUse">
		<stop  offset="0.2692" style="stop-color:#AF15FF"/>
		<stop  offset="1" style="stop-color:#00D413"/>
	</radialGradient>
	<path class="st4" d="M151.6-10.3c-1.4-0.8-3.4-1.6-5.9-2.3c-1.8-0.5-3.7-1.1-5.9-1.5c1.3-0.4,2.6-0.7,3.8-1.1
		c4.1-1.3,8.2-3,7.9-6.1c-0.2-1.6-1.3-2.7-3.6-3.4c-1.4-0.5-3.4-0.8-5.8-1c-1.3-0.1-2.7-0.2-4.2-0.2c2.1-0.9,4-1.9,5.7-2.7
		c6.2-3.3,8.5-5.8,7.7-8.5c-0.5-1.5-2-2.4-4.4-2.7c-1.6-0.2-3.7-0.1-6.4,0.3c-1.8,0.2-3.8,0.6-5.9,1c1.3-1,2.5-1.9,3.4-2.8
		c1.8-1.6,3.2-3,4.1-4.2c1.3-1.9,1.6-3.5,0.9-4.9c-0.8-1.3-2.3-1.9-4.7-1.7c-1.5,0.2-3.4,0.6-5.7,1.5c-1.3,0.5-2.7,1-4.2,1.6
		c1.5-1.6,2.7-3.2,3.9-4.6c1.6-2.1,2.7-3.9,3.4-5.4c1-2.2,1-4-0.1-5.2c-1.1-1.2-2.8-1.4-5.1-0.6c-1.5,0.5-3.4,1.5-5.7,2.9
		c-1.6,0.9-3.3,2.1-5,3.4c0.8-1.4,1.5-2.7,2-3.9c1.1-2.2,1.7-4.1,2-5.6c0.5-2.3,0.1-3.9-1.2-4.8c-1.2-0.9-2.9-0.8-4.9,0.4
		c-1.3,0.8-2.9,1.9-4.6,3.6c-1,0.9-2,2-3.1,3.1c0.6-2,1.2-4,1.6-5.8c0.6-2.6,0.9-4.7,0.9-6.3c0-2.5-0.7-4-2.2-4.7s-3.2-0.1-5,1.6
		c-1.2,1.1-2.6,2.8-4.2,5.1c-1.1,1.6-2.2,3.3-3.3,5.3c0.1-1.5,0.2-2.9,0.2-4.2c0.1-2.5-0.1-4.4-0.4-5.8c-0.5-2.3-1.5-3.6-3-3.9
		c-3.2-0.6-5.3,3.3-7,7.3c-0.5,1.2-1,2.5-1.5,3.8c-0.2-2.2-0.5-4.2-0.9-6c-0.5-2.6-1.1-4.7-1.7-6.1c-1-2.2-2.3-3.4-3.9-3.4
		c-1.6,0-2.9,1.1-3.9,3.4c-0.6,1.5-1.2,3.5-1.7,6.1c-0.4,1.8-0.6,3.8-0.9,6c-0.5-1.4-1-2.7-1.5-4c-1.7-4-3.9-8-7-7.4
		c-1.5,0.4-2.6,1.6-3,3.9c-0.3,1.5-0.5,3.4-0.4,5.9c0,1.3,0.1,2.8,0.2,4.4c-1.1-1.9-2.2-3.7-3.3-5.2c-1.5-2.2-2.9-3.9-4.1-5
		c-1.8-1.7-3.5-2.2-5-1.6s-2.2,2.2-2.2,4.7c0,1.6,0.4,3.7,0.9,6.3c0.4,1.8,1,3.7,1.6,5.7C48.4-67,47.4-68,46.4-69
		c-1.8-1.6-3.3-2.9-4.6-3.6c-2-1.2-3.7-1.3-4.9-0.4c-1.3,0.9-1.6,2.5-1.2,4.8c0.3,1.5,1,3.3,2,5.6c0.6,1.2,1.3,2.6,2,4
		c-1.8-1.3-3.4-2.4-5-3.3c-2.3-1.4-4.2-2.3-5.7-2.9c-2.3-0.8-4-0.6-5.1,0.6c-1.8,2-0.8,5.3,3.6,10.9c1.2,1.6,2.7,3.3,4.3,5
		c-1.2-0.5-2.3-0.9-3.3-1.2c-4.1-1.4-8.4-2.5-10,0.3c-1.6,2.7,1.5,6,4.7,8.8c0.8,0.7,1.7,1.5,2.7,2.2c-2.3-0.5-4.5-0.9-6.4-1.2
		c-2.7-0.4-4.9-0.5-6.5-0.3c-2.5,0.2-4,1.1-4.5,2.7c-0.5,1.5,0.1,3,1.9,4.6c1.1,1,2.7,2.2,4.9,3.3c1.6,0.9,3.4,1.8,5.4,2.7
		c-0.9,0.1-1.8,0.1-2.6,0.2c-3.5,0.4-7.5,1.2-7.8,4.2c-0.4,3.3,4.2,5,8.7,6.3c1.2,0.4,2.6,0.7,4,1.1c-3.1,0.6-5.9,1.2-8.4,1.9
		c-6.8,2-9.6,4-9.4,6.7C5.2-4.2,6.4-3,8.8-2.3c1.5,0.5,3.6,0.8,6.3,1.1C16.8-1.1,18.8-1,20.9-1c-1.5,0.7-2.8,1.4-4,2
		c-2.1,1.2-3.7,2.3-4.9,3.3c-1.7,1.6-2.3,3.1-1.9,4.6s1.9,2.3,4.2,2.6c0.5,0.1,1.1,0.1,1.8,0.1c1.2,0,2.6-0.1,4.2-0.3
		c1.4-0.2,2.9-0.4,4.5-0.7c-1.8,1.3-3.3,2.5-4.7,3.7c-2,1.8-3.5,3.3-4.5,4.6c-1.5,2-1.8,3.7-1,5.1c0.7,1.2,1.9,1.8,3.7,1.8
		c0.4,0,0.6,0,1.1-0.1c1.6-0.2,3.6-0.6,6-1.5c1.6-0.5,3.3-1.2,5.1-2C29.2,23.5,28,25,27,26.3c-1.5,2-2.6,3.8-3.3,5.2
		c-1,2.2-0.9,3.9,0.1,5.1c0.6,0.7,1.5,1.1,2.7,1.1c0.7,0,1.5-0.1,2.3-0.4c1.5-0.5,3.3-1.4,5.6-2.7c1.4-0.9,2.9-1.9,4.6-3
		c-1,1.7-1.8,3.3-2.5,4.9c-1.1,2.3-1.8,4.3-2.1,5.8c-0.5,2.3-0.1,4,1.2,4.9c0.6,0.4,1.2,0.6,1.9,0.6c0.9,0,2-0.4,3.2-1.1
		c1.4-0.8,3-2.2,5-4c1.3-1.2,2.7-2.6,4.1-4.2c-0.5,1.6-0.9,3.2-1.2,4.6c-0.6,2.4-0.8,4.4-0.8,5.9c0,2.3,0.8,3.9,2.2,4.5
		c0.4,0.2,0.8,0.3,1.3,0.3c1.1,0,2.3-0.5,3.5-1.6c1.1-1,2.4-2.5,3.8-4.6c0.8-1.2,1.7-2.5,2.6-3.9c-0.2,2.1-0.4,4.1-0.4,5.8
		c-0.1,2.6,0.1,4.7,0.4,6.3c0.5,2.4,1.5,3.7,3.1,4.1c0.2,0.1,0.5,0.1,0.7,0.1c2.4,0,4.5-2.7,7-8.7c0.9-2.2,1.8-4.8,2.6-7.6
		c0.2,1.6,0.4,3.2,0.6,4.6c0.8,4.7,2.1,9.4,5.4,9.4c3,0,4.3-4,5.1-7.5c0.2-0.9,0.4-2,0.6-3.1c0.7,2,1.3,3.8,2,5.4
		c0.9,2.2,1.9,4,2.8,5.1c1.2,1.6,2.4,2.3,3.7,2.3c0.2,0,0.5,0,0.6-0.1c1.6-0.4,2.6-1.8,3.2-4.2c0.4-1.6,0.5-3.8,0.4-6.5
		c-0.1-1.9-0.2-4.1-0.5-6.4c0.7,1.1,1.3,2.1,2,3c2.1,3,4.5,5.8,7,5.8c0.4,0,0.9-0.1,1.3-0.3c2.9-1.3,2.3-5.8,1.3-10
		c-0.2-1.1-0.6-2.3-0.9-3.6c1.6,1.8,3.1,3.3,4.5,4.7c3.7,3.6,6.4,5.3,8.5,5.3c0.7,0,1.3-0.2,1.9-0.6c2.2-1.6,1.8-5-1.3-11.4
		c-0.9-1.9-2-3.9-3.2-6c0.9,0.6,1.8,1.2,2.7,1.7c2.5,1.5,5,2.8,7.1,2.8c1,0,1.9-0.3,2.6-1.1c2.1-2.3-0.2-6.1-2.7-9.4
		c-0.6-0.8-1.2-1.6-2-2.5c2.2,1,4.3,1.9,6.3,2.6c3.4,1.2,5.9,1.8,7.8,1.8c1.8,0,3-0.6,3.7-1.8c0.8-1.4,0.5-3.1-1-5.1
		c-0.9-1.3-2.5-2.9-4.5-4.6c-1.4-1.2-3-2.4-4.7-3.7c1.6,0.3,3.2,0.6,4.6,0.8c1.6,0.2,3,0.3,4.2,0.3c0.6,0,1.2,0,1.8-0.1
		c2.3-0.2,3.7-1.1,4.2-2.6c0.5-1.5-0.1-3-1.9-4.6c-1.1-1-2.7-2.1-4.9-3.3c-1.2-0.7-2.6-1.3-4-2c2.2,0,4.2-0.1,5.9-0.2
		c2.6-0.2,4.7-0.6,6.3-1.1c2.3-0.8,3.6-1.9,3.7-3.5C154.7-7.6,153.7-9,151.6-10.3z"/>
	
		<radialGradient id="SVGID_7_" cx="80.734" cy="163.2385" r="15.4423" gradientTransform="matrix(1 0 0 -1 0 150)" gradientUnits="userSpaceOnUse">
		<stop  offset="0" style="stop-color:#F0FF15"/>
		<stop  offset="9.468095e-02" style="stop-color:#F1F31E"/>
		<stop  offset="0.2675" style="stop-color:#F3D237"/>
		<stop  offset="0.4989" style="stop-color:#F69D5F"/>
		<stop  offset="0.7767" style="stop-color:#FB5495"/>
		<stop  offset="1" style="stop-color:#FF15C5"/>
	</radialGradient>
	<path class="st5" d="M93.5-17.4c-0.5-1.5,0.9-3.9,0-5.1c-0.9-1.2-3.6-0.6-4.9-1.6c-1.2-0.9-1.5-3.7-3-4.2c-1.4-0.5-3.3,1.6-4.9,1.6
		s-3.4-2-4.9-1.6c-1.5,0.5-1.8,3.3-3,4.2c-1.2,0.9-4,0.4-4.9,1.6c-0.9,1.2,0.5,3.7,0,5.1c-0.5,1.4-3,2.6-3,4.2s2.6,2.7,3,4.2
		c0.5,1.5-0.9,3.9,0,5.1c0.9,1.2,3.6,0.6,4.9,1.6c1.2,0.9,1.5,3.7,3,4.2c1.4,0.5,3.3-1.6,4.9-1.6s3.4,2,4.9,1.6
		c1.5-0.5,1.8-3.3,3-4.2s4-0.4,4.9-1.6c0.9-1.2-0.5-3.7,0-5.1c0.5-1.4,3-2.6,3-4.2S93.9-16,93.5-17.4z"/>
	
		<radialGradient id="SVGID_8_" cx="80.5001" cy="163.94" r="69.2144" gradientTransform="matrix(1 0 0 -1 0 150)" gradientUnits="userSpaceOnUse">
		<stop  offset="0" style="stop-color:#EBFF55"/>
		<stop  offset="0.9973" style="stop-color:#00E9B2"/>
	</radialGradient>
	<path class="st6" d="M146.6-20c-2.6,1.2-8.7,3.2-19.2,4.5c-0.5-0.1-0.9-0.1-1.3-0.2c-5.3-0.6-10.3-0.8-14.7-0.8
		c4.3-0.9,9.2-2.2,14.2-3.9C136.5-21.2,143.6-20.7,146.6-20z M80.5-33.6L80.5-33.6 M86.6,5.6L86.6,5.6L86.6,5.6L86.6,5.6z M100-19.5
		C100-19.5,99.9-19.5,100-19.5c0.1,0.1,0.2,0.1,0.4,0.1l0,0c4.7,0.2,14.1-1.8,23.9-5l0.2-0.1l0,0c6.2-2,12-4.3,16.4-6.5
		c3.3-1.6,5-2.9,6-3.6c-3.2-0.2-11.1,0.8-23,4.6l0,0c-0.5,0.1-0.9,0.3-1.3,0.4C112.4-26.5,103.5-22.4,100-19.5 M119.6-38.7
		c-0.2,0.2-0.5,0.5-0.8,0.7c-3.9,3.6-7.8,6.7-11.4,9.3c4-1.8,8.7-3.6,13.7-5.3c0.4-0.1,0.8-0.2,1.1-0.4c4.9-2.9,9.3-6,12.5-8.7
		c2.2-1.8,3.4-3.1,4.2-4C135.9-46.4,129.1-44,119.6-38.7z M95.8-26.9c4.3-1.6,12.2-7.3,20.1-14.4c0.3-0.3,0.6-0.6,0.9-0.8l0,0
		c9.3-8.5,14.1-14.9,15.6-17.8c-3,1.1-9.9,5.3-19.3,13.7l0,0c-0.3,0.2-0.6,0.5-0.9,0.8C104.3-38.3,97.8-31,95.8-26.9
		c-0.1,0.1-0.1,0.1-0.1,0.1C95.7-26.9,95.8-26.9,95.8-26.9 M105.8-52.4c-0.1,0.4-0.3,0.6-0.4,1c-2.2,4.9-4.4,9.4-6.7,13.1
		c2.9-3.3,6.5-6.8,10.4-10.3c0.2-0.2,0.5-0.4,0.7-0.6c3.2-4.6,6.1-9.2,8-13c1.3-2.6,1.9-4.3,2.2-5.3c-0.9,0.6-2.3,1.7-4.3,3.7
		C112.7-60.9,109.2-56.8,105.8-52.4z M96.5-56L96.5-56c-0.1,0.2-0.2,0.4-0.2,0.6c-4.3,9.5-7.2,18.7-7.5,23.4c0,0.1,0,0.2,0,0.3
		l0.1-0.1c3.3-3.3,8.2-11.6,12.5-21.3c0.2-0.4,0.4-0.8,0.5-1.2l0,0c5-11.5,6.8-19.3,7-22.5c-0.9,0.8-2.2,2.4-4.2,5.4
		C102.1-67.4,99.1-61.9,96.5-56z M87.7-59.4c0,0.4,0,0.8,0,1.2c0,5.3-0.2,10.3-0.7,14.7c1.3-4.2,3.2-8.9,5.3-13.7
		c0.1-0.1,0.1-0.2,0.2-0.4c2.1-10.7,2.3-17.8,1.9-20.9C92.8-76,90.1-70,87.7-59.4z M83.2-59.7C83.1-72.2,81.6-80,80.4-83
		c-1.2,2.9-2.7,10.8-2.8,23.2c0,0.5,0,1,0,1.5c0,10.6,1.1,20.5,2.8,24.7c1.7-4.2,2.8-14.1,2.8-24.7C83.3-58.7,83.3-59.2,83.2-59.7
		 M68.5-57.8c0.1,0.2,0.2,0.4,0.2,0.5c2.2,4.9,4,9.5,5.3,13.7c-0.5-4.3-0.7-9.4-0.7-14.7c0-0.4,0-0.8,0-1.2
		c-2.5-10.8-5.1-16.8-6.7-19.3C66.2-75.7,66.4-68.6,68.5-57.8z M64.4-56.2c-2.6-5.8-5.5-11.2-8.1-15.3c-1.9-3-3.3-4.6-4.2-5.4
		c0.2,3.2,2,10.9,7,22.4c0.2,0.4,0.4,0.8,0.6,1.3c4.3,9.7,9.2,18.1,12.5,21.3l0.1,0.1c0-0.1,0-0.2,0-0.2c-0.3-4.7-3.2-13.9-7.5-23.4
		C64.6-55.7,64.5-56,64.4-56.2 M40.8-67.8c0.8,2.9,3.9,9.4,10.2,18.4c0.3,0.2,0.5,0.5,0.8,0.7c3.9,3.6,7.5,7.1,10.4,10.3
		c-2.2-3.8-4.5-8.2-6.7-13.1c-0.2-0.4-0.3-0.7-0.5-1.1c-3.4-4.5-7-8.7-9.9-11.6C43.1-66.1,41.7-67.2,40.8-67.8z M47.9-46.3
		c-9.4-8.3-16.2-12.5-19.2-13.6c0.5,1.1,1.6,2.9,4,5.8c3.2,3.8,7.5,8.4,12.3,12.7l0,0l0.2,0.2c7.8,7,15.6,12.6,20,14.3l0,0
		c0.1,0,0.1,0.1,0.2,0.1c0-0.1-0.1-0.1-0.1-0.1c-2.1-4.2-8.6-11.4-16.4-18.5C48.5-45.7,48.2-46,47.9-46.3 M39.5-34l0.3,0.1
		c5,1.6,9.8,3.4,13.7,5.3c-3.6-2.6-7.5-5.7-11.4-9.3c-9.2-5.1-15.3-7.2-18.1-7.8C25.9-43.6,30.6-39.4,39.5-34z M33.7-25.5
		c1,0.4,2,0.7,3,1.1c11.8,3.8,20.5,5.2,24.3,5L61-19.5 M61-19.6c-3.6-2.9-12.5-7-22.5-10.2l-0.6-0.1l0,0c-6.1-2-12.1-3.4-17-4.3
		c-3.6-0.6-5.7-0.6-6.8-0.5c2.2,1.8,8.3,5.3,19.6,9.2 M37.9-16c0.4,0.1,0.7,0.1,1,0.1c3.8-0.3,7.4-0.5,10.7-0.4
		c-4.3-0.9-9.2-2.2-14.2-3.9c-0.9-0.3-1.9-0.6-2.9-0.9c-8.5-0.6-13.7-0.1-16.1,0.5C19.4-19.3,26.6-17.3,37.9-16z M39.1-11.5
		c-1.2,0.1-2.5,0.2-3.7,0.4C22.3-9.8,14.1-7.4,11.1-5.9c3,0.8,10.9,1.5,23.3,0.4l0,0C35-5.6,35.5-5.6,36-5.7
		C46.6-6.8,56.1-8.9,60.2-11l0,0c-0.5-0.1-1.2-0.3-2-0.4C53.8-12.1,46.8-12.2,39.1-11.5 M37,3.7c0.3-0.2,0.6-0.4,0.8-0.5
		c4.6-2.6,9.1-5,13.1-6.7c-4.3,0.9-9.2,1.7-14.6,2.3c-0.5,0.1-0.9,0.1-1.3,0.1c-5.3,1.9-10.3,3.9-14,5.8c-2.6,1.3-4,2.3-4.9,3
		C19.2,7.8,26.4,6.9,37,3.7z M39.1,7.6c-10.9,6.4-17,11.6-19,14.1c3.1-0.5,10.3-3,20.9-8.8l0,0c0.6-0.4,1.3-0.7,1.9-1.1
		C52.1,6.5,59.9,0.7,62.8-2.9c0,0,0,0,0-0.1c-0.1,0-0.1,0-0.2,0l0,0C58-2.2,49.2,1.6,40,6.9C39.7,7.2,39.4,7.3,39.1,7.6 M47,20.7
		c0.4-0.5,0.8-1.1,1.2-1.6c3.1-4.3,6.3-8.2,9.2-11.5c-3.5,2.6-7.8,5.3-12.3,8c-0.6,0.4-1.2,0.6-1.8,1c-8.7,8.1-13.3,14.2-14.7,17
		C31.5,32.4,38.1,28.5,47,20.7z M63.8,30.8c0.1-0.5,0.2-0.9,0.3-1.3c1.1-5.2,2.4-10.1,3.7-14.2c-2.2,3.8-4.9,8-8.1,12.3
		c-0.2,0.4-0.5,0.6-0.7,1C54.7,38.9,53,46,52.8,49c0.8-0.8,1.9-2.2,3.6-4.7C58.8,40.8,61.4,36,63.8,30.8z M76.5,8.6
		c-0.1-0.8-0.1-1.3-0.2-1.8c0,0,0,0,0,0.1l0,0c-2.5,3.9-5.6,13.1-7.8,23.5c-0.1,0.5-0.2,1.1-0.4,1.6l0,0C65.7,44.1,65.5,52,66,55.1
		c1.8-2.8,5.1-10.7,7.9-23.6c0.2-1,0.4-2,0.6-3C76,20.6,76.7,13.1,76.5,8.6 M81.3,52.6c0.9-2.5,1.9-7.8,2.3-16.8
		c-0.2-1.1-0.5-2.2-0.8-3.3c-1.1-5.2-1.9-10.2-2.3-14.6c-0.4,3.4-0.9,7.2-1.7,11.3c0,0.3,0,0.6,0,0.9c0,6,0.4,11.9,1.1,16.5
		C80.4,49.6,80.9,51.5,81.3,52.6z M92.8,31.1c-0.1-0.2-0.1-0.5-0.2-0.8C90.4,20,87.3,10.7,84.8,6.9l0,0c0,0,0-0.1-0.1-0.1
		c-0.6,3.7-0.2,12.6,2.4,24.7c0.2,1.2,0.5,2.4,0.8,3.6c2.7,11.3,5.5,17.6,7.1,20c0.2-1.2,0.4-3.2,0.2-6.8
		C94.9,43.5,94.1,37.3,92.8,31.1 M107.1,46.7c-0.2-2.9-1.7-9.2-5.9-19.2l-0.1-0.1c-3.1-4.3-5.8-8.5-8.1-12.3c1.3,4.2,2.7,9,3.7,14.2
		c0.1,0.2,0.1,0.4,0.1,0.5C101.5,39.5,105.2,44.7,107.1,46.7z M121.5,43.3c-0.9-3.2-4.6-11-12.3-21.6l0,0l0,0l0,0
		C103,13.2,96.5,6.1,92.6,3.5c-0.1-0.1-0.1-0.1-0.2-0.1c0,0.1,0.1,0.2,0.1,0.2c1.2,4.5,6,12.9,12.2,21.3l0.2,0.2l0,0
		c3.8,5.2,7.8,10.1,11.3,13.5C118.8,41.3,120.5,42.6,121.5,43.3z M128.3,29.8c-1.4-2.5-5.1-7.4-12.5-14.3c-4.6-2.6-8.7-5.3-12.2-7.9
		c2.9,3.2,6,7.1,9.1,11.3C120.3,25.5,125.6,28.7,128.3,29.8z M98.3-2.9c-0.1,0-0.1,0-0.2,0c0.1,0.1,0.1,0.1,0.1,0.1 M98.3-2.8
		c2.9,3.6,10.8,9.4,19.9,14.6l0.1,0.1 M118.2,11.8c5.7,3.3,11.3,6,16,7.8c3.4,1.3,5.6,1.9,6.8,2c-2-2.5-8.1-7.8-18.9-14.1
		c-0.4-0.2-0.7-0.4-1.1-0.6c-9.1-5.3-18-9.2-22.6-9.9 M140,4.7c-3.7-1.9-8.7-4-14-5.8c-0.5-0.1-0.9-0.1-1.3-0.1
		c-5.3-0.6-10.3-1.3-14.6-2.3c4,1.8,8.5,4,13.1,6.7c0.3,0.2,0.6,0.4,0.9,0.5c10.6,3.3,17.8,4.2,20.9,4.1C144,7,142.5,6.1,140,4.7z
		 M149.9-5.9c-2.8-1.5-10.4-3.7-22.7-5.2c-0.5-0.1-1.1-0.1-1.6-0.2c-8.8-0.9-19.8-1.2-24.8,0.2l0,0c4.1,2.1,13.6,4.2,24.2,5.3
		c0.5,0.1,1.1,0.1,1.6,0.2l0,0C139-4.4,146.8-5.1,149.9-5.9z M68.3,5.2c0.3-0.7,0.5-1.3,0.6-1.8h-0.1l0,0C65,5.9,58.3,13,52,21.6
		c-0.4,0.4-0.6,0.9-0.9,1.3l0,0c-7.3,10-10.7,17.1-11.5,20.2c2.8-1.8,9.1-7.6,17-18.2c0.6-0.8,1.2-1.6,1.8-2.5
		C63,15.9,66.7,9.4,68.3,5.2"/>
</g>
<g>
	
		<linearGradient id="SVGID_9_" gradientUnits="userSpaceOnUse" x1="-50.9999" y1="288.5391" x2="-50.9999" y2="13.3561" gradientTransform="matrix(0.9411 -0.3381 -0.3381 -0.9411 43.3759 129.0638)">
		<stop  offset="8.703807e-02" style="stop-color:#0071BC"/>
		<stop  offset="0.1634" style="stop-color:#22B573"/>
		<stop  offset="0.3391" style="stop-color:#FCEE21"/>
		<stop  offset="0.5199" style="stop-color:#EA6044"/>
		<stop  offset="0.6642" style="stop-color:#D4145A"/>
		<stop  offset="0.8273" style="stop-color:#813A87"/>
		<stop  offset="1" style="stop-color:#0071BC"/>
	</linearGradient>
	<path class="st7" d="M28.8-79c-2.1-4.2-4.1-8.5-6.2-12.8c-0.3-0.7-0.6-1.4-1-2.1c-2.4-3.4-4.2-7.2-6.7-10.5
		c-2.7-3.4-5.3-6.7-8.4-9.7c-2.9-2.8-6-5.5-9-8.1c-6.2-5.4-12.5-10.5-20.2-13c-4.9-1.6-9.8-2.4-14.8-2.3c-6.5,0.2-12.3,2.6-18.2,4.8
		c-4.4,1.6-8.7,4.2-12.1,7.5c-0.6,0.5-1.1,1.1-1.7,1.6c-3.1,3.1-5.6,6.7-7.2,11.2c-1.8,4.9-2.3,10-2.2,15.3c0,1.3,0,2.5-0.2,3.7
		c-0.3,1.9-1.8,2.3-3.1,0.9c-0.6-0.6-1.2-1.2-1.6-2c-2.8-4.8-6.1-9-9.9-12.9c-4.2-4.2-9.9-8.5-15-10c-1.3-0.1-2.6-0.4-4-0.6
		c-5.4-0.6-10.7,0.1-15.7,2.2c-2.7,0.9-5.4,1.7-7.9,3c-4.1,2.2-8.1,4.6-11.6,7.7c-3.9,3.4-7.5,7.1-10.8,11.2
		c-2.8,3.5-5.2,7.3-7.6,11.3c-2.5,4.3-4.1,9.1-5.6,14c-0.6,1.9-1.1,4-1.5,6c-1,5.1-1.7,10.3-2,15.6c-0.3,4.8,0,9.6,0.1,14.4
		c0,0.9-0.3,1.7-0.1,2.6c0.9,4,0.8,8.1,1.6,12.1c1.3,6.2,2.6,12.4,4.3,18.5c2.1,7.6,4.3,15.2,6.8,22.7c1.9,5.9,3.2,12,5.3,17.8
		c0.3,0.7,0.5,1.5,1.4,1.6c0.9,0.1,1.2-0.7,1.5-1.4c1.5-3.2,2.9-6.5,4.6-9.5c1.5-2.5,2.9-5.1,4.4-7.6c1.1-1.8,2.1-3.7,3.5-5.3
		c2.8-3.3,5.6-6.6,8.6-9.6c3.3-3.3,6.5-6.6,10-9.7c3.1-2.8,6-5.7,9.2-8.5c4.2-3.8,8.5-7.5,12.9-11.2c1.4-1.2,3.1-1.8,4.8-2.2
		c1.4-0.3,3.2,1.2,2.9,2.3c-0.3,1.1-0.7,2.1-1.3,3c-0.7,1-1.9,1.2-2.5,2.6c-0.4,1-1.5,2-2.3,2.9c-3.6,3.6-6.9,7.5-10.3,11.4
		c-2.8,3.1-5.2,6.6-8.1,9.5c-3.1,3.2-6,6.6-9,9.8c-2.4,2.6-4.5,5.5-6.7,8.4c-3.7,5-7.2,10.2-9,16.5c-1.3,4.4-1.2,8.9,0,13.2
		c1.5,5,3.7,9.8,6,14.5c0.8,1.6,1.9,3.1,2.6,4.7c2.8,6.2,6.6,11.8,11.4,16.5c4.7,4.7,10.1,8.2,15.9,11.1c1.3,0.6,2.2,0,2.2-1.5
		c-0.1-2.4-0.2-4.9-0.6-7.3c-0.8-5.6-1.5-11.2-0.7-16.8c0.7-4.9,2.2-9.4,4.4-13.6c2.8-5.1,6-10,9.3-14.8c2.4-3.5,4.7-7.1,7.1-10.6
		c1.4-2,2.9-3.9,4.3-6c2.4-3.7,5-7.3,7.8-10.6c1.1-1.3,2.7-1.1,3.7,0.5c1,1.5,0.8,2.9,0.3,4.3c-2.6,6.6-6.5,12.4-9.3,18.9
		c-1.5,3.5-3.3,6.7-4.6,10.3c-1.8,4.9-3.7,9.7-5,14.8c-1.3,5.1-2,10.2-2.1,15.6c-0.1,4.2,1.4,8,2.8,11.9c0.7,1.7,1.7,3.1,2.8,4.5
		c1.8,2.2,3.9,3.8,6,5.4c3.1,2.3,6.5,3.8,10.2,4.6c1.7,0.4,3.3,0.6,5,0.9c3.8,0.6,7.6,1.7,11.5,2.2c4.7,0.6,9.2,1.7,13.8,2.6
		c3.4,0.7,6.7,1.7,10,2.5c3.4,0.8,6.8,1.7,10.1,2.9c5.3,1.9,10.7,2.9,15.8,5.6c0.9,0.5,2.3,0.5,2.8-0.4c1.1-1.9,2.4-3.4,3.5-5.2
		c2-3.5,3.9-7.1,5.8-10.7c2.7-4.9,5.5-9.7,8-14.8c2.5-4.9,5.4-9.4,8-14.3c2.4-4.4,4.7-8.9,5.7-14.1c1.2-6.7-0.1-12.6-4.8-17.7
		c-2.1-2.3-4.4-4.2-6.7-6.1C14.4,42.4,8,39,2.1,34.7C0,33.2-2.1,32-4,30.2c-1-0.9-0.9-2-0.7-3s1.1-1.6,1.9-1.4
		c1.6,0.4,3.3,0.4,4.8,1.1c4.1,1.8,8.1,3.9,12.2,5.8c2,1,3.9,2.3,5.8,3.3c4.1,2.2,7.9,5,11.9,7.3c1.7,1,3.3,2.2,5,3.4
		c0.8,0.6,1.7,0.7,2.2-0.4c0.8-1.8,1.8-3.3,2.3-5.3c0.4-1.8,1-3.6,1.6-5.3c1.9-6,4.1-11.8,4.8-18.2C48.3,12,47,7.3,43.5,3.1
		c-2-2.5-4.6-4.2-6.8-6.5c-2.5-2.6-5.5-4.5-8.2-6.7c-5-4-10.4-7.3-16-10.2c-5-2.5-10-5.2-15.1-7.8c-2.5-1.3-5.2-2.2-7.4-4.1
		c-1.6-1.3-1.9-2.1-1.5-4.4c0.3-1.7,1.5-1.8,2.7-1.9c3.3-0.1,6.5,0.8,9.8,0.8c3.7,0,7.3,1.2,10.8,2.1c3.7,1,7.2,2.3,10.8,3.8
		c4.7,2,9.3,4.3,13.7,7.1c3.4,2.2,6.9,4.5,10.3,6.7c1.3,0.9,1.7,0.6,2-1c0.3-1.9-0.6-3.6-0.6-5.3c-0.1-3.3-1.4-6.3-2.4-9.3
		c-2.5-7.4-5.4-14.7-7.8-22.1C35.4-63.7,32.6-71.5,28.8-79z"/>
	
		<linearGradient id="SVGID_10_" gradientUnits="userSpaceOnUse" x1="-151.5228" y1="151.7443" x2="50.4742" y2="151.7443" gradientTransform="matrix(0.9411 -0.3381 -0.3381 -0.9411 43.3759 129.0638)">
		<stop  offset="8.703807e-02" style="stop-color:#0071BC"/>
		<stop  offset="0.1634" style="stop-color:#22B573"/>
		<stop  offset="0.3391" style="stop-color:#FCEE21"/>
		<stop  offset="0.5199" style="stop-color:#EA6044"/>
		<stop  offset="0.6642" style="stop-color:#D4145A"/>
		<stop  offset="0.8273" style="stop-color:#813A87"/>
		<stop  offset="1" style="stop-color:#0071BC"/>
	</linearGradient>
	<path class="st8" d="M-2.7,122.2c-2.7-1.1-5.4-1.9-8-2.7c-1.7-0.5-3.4-1-4.9-1.6c-3.3-1.2-6.9-2.2-10.8-3.1c-1.3-0.3-2.5-0.6-3.9-1
		c-2.1-0.5-4.2-1.1-6.4-1.5c-1-0.2-1.9-0.4-2.9-0.6c-3.7-0.8-7.5-1.6-11.4-2.1c-1.8-0.2-3.7-0.7-5.7-1.1c-1.8-0.4-3.7-0.8-5.6-1.1
		l-0.3,0c-1.5-0.3-3-0.5-4.4-0.8c-2.8-0.6-5.2-1.7-7.5-3.4c-1.8-1.3-3.5-2.6-4.7-4.1c-0.8-1-1.4-1.8-1.7-2.6
		c-1.2-3.3-2.4-6.4-2.4-9.2c0.1-4.7,0.7-9.4,1.8-13.9c1.1-4.2,2.6-8.3,4.2-12.6l0.6-1.5c0.6-1.7,1.5-3.4,2.3-5.2
		c0.7-1.5,1.5-3.1,2.2-4.8c1.2-2.8,2.7-5.6,4.2-8.5c1.8-3.3,3.6-6.7,5.1-10.5c1.9-4.8,0.6-8.5-0.9-10.8c-2.5-4-7-5.6-11.1-4.1
		c-1.6,0.6-2.9,1.6-4.1,2.9c-3.3,3.9-6.2,8.1-8.3,11.3c-0.6,0.9-1.3,1.9-2,2.8c-0.7,1-1.5,2-2.2,3.1c-1,1.5-2,3.1-3,4.5
		c-1.3,2-2.7,4.1-4.1,6.1c-3.8,5.5-7,10.3-9.7,15.4c-2.6,4.9-4.4,10.2-5.2,16c-0.7,4.9-0.5,9.7,0.1,14.6c-1.7-1.3-3.3-2.7-4.8-4.1
		c-4.1-4-7.4-8.8-9.9-14.3c-0.6-1.3-1.2-2.3-1.8-3.2c-0.4-0.6-0.7-1.1-0.9-1.6c-2.2-4.5-4.3-8.9-5.6-13.4c-0.9-3.1-0.9-6.2,0-9.3
		c1.4-4.9,4.1-9.1,7.9-14.2l0.5-0.7c1.9-2.6,3.7-5,5.6-7c1.4-1.5,2.7-2.9,4-4.3c1.7-1.9,3.3-3.7,5-5.4c1.9-2,3.6-4.1,5.3-6.1
		C-107,7-106,5.8-105,4.6c0.8-0.9,1.6-1.8,2.4-2.7c2.6-2.9,5-5.8,7.6-8.3c1.2-1.2,2.4-2.5,3.3-4.1c0.6-0.5,1.5-1.2,2.3-2.4
		c1.1-1.6,1.9-3.3,2.4-5.3c0.8-2.8-0.1-5.9-2.3-8.2c-2.4-2.5-5.9-3.6-9.1-2.9c-1,0.2-1.9,0.5-2.8,0.8c-2,0.7-3.7,1.7-5.2,3
		c-1.4,1.2-2.7,2.4-4.1,3.5c-2.9,2.5-5.9,5.1-8.8,7.7c-1.7,1.5-3.3,3.1-4.9,4.5c-1.5,1.4-2.9,2.7-4.3,4c-2.6,2.4-5.1,4.9-7.6,7.3
		c-0.9,0.9-1.8,1.8-2.6,2.6c-2.9,2.8-5.4,5.8-7.9,8.7c-0.4,0.5-0.8,0.9-1.2,1.4c-1.5,1.8-2.7,3.7-3.7,5.4c-0.2,0.3-0.3,0.5-0.5,0.8
		c-0.9,1.5-1.7,2.9-2.5,4.3c-0.2,0.3-0.3,0.6-0.5,0.8c-0.4-1.5-0.9-3-1.4-4.5c-2.1-6.7-4.4-14-6.7-22.4c-1.6-5.5-2.8-11.4-4-17
		l-0.2-1.1c-0.4-1.6-0.5-3.3-0.7-5.2c-0.2-2-0.4-4-0.8-6.2c0.1-0.5,0.1-1.1,0.1-1.9c0-1.2-0.1-2.4-0.1-3.6c-0.1-3.6-0.2-6.9,0-10.3
		c0.2-4.5,0.9-9.3,1.9-14.6c0.3-1.7,0.8-3.4,1.3-5.3c1.4-4.5,2.8-8.8,4.9-12.5c1.8-3,4.2-6.9,7-10.4c2.9-3.6,6.1-7,9.9-10.3
		c3.1-2.7,6.7-4.8,10.3-6.8c0.8-0.4,1.7-0.8,3-1.3c0.7-0.2,1.4-0.5,2.1-0.7c0.6-0.2,1.2-0.4,1.8-0.6l0.2-0.1l0.2-0.1
		c0.3-0.1,0.7-0.3,1-0.4c3.6-1.3,7.4-1.7,11.3-1.3c0.3,0,0.8,0.1,1.2,0.2c0.6,0.1,1.3,0.2,2.1,0.3c3.2,1.1,7.5,4.1,11.4,8
		c3.5,3.5,6.5,7.3,8.8,11.4c0.9,1.5,2,2.6,2.7,3.4l0,0c2.6,2.6,6.3,3.6,9.5,2.4c3-1.1,5.1-3.7,5.7-7c0.3-1.5,0.4-3.2,0.4-5.2
		c-0.1-5.1,0.4-9.1,1.7-12.7c1.2-3.2,3-6,5.6-8.5c0.5-0.5,1-1,1.6-1.5l0.1-0.1c2.5-2.4,5.8-4.5,9.5-5.9c0.6-0.2,1.1-0.4,1.6-0.6
		c1.2-0.4,2.2-0.8,3.3-1.2c3.5-1.2,7.2-2.4,11-2.5c4-0.1,8,0.5,12.5,1.9c6.4,2.1,12.1,6.6,17.7,11.5c2.7,2.3,5.8,5.1,8.8,7.9
		c2.8,2.7,5.4,5.9,7.7,8.9c1.2,1.5,2.2,3.3,3.3,5.2c1,1.6,1.9,3.2,3.1,4.9c0,0.1,0.1,0.2,0.1,0.3c0.1,0.3,0.3,0.6,0.5,1
		c0.8,1.6,1.5,3.2,2.3,4.9c1.2,2.6,2.5,5.3,3.9,8c3.8,7.5,6.6,15.5,8.8,22.3c1.3,3.9,2.7,7.8,4.1,11.5c1.2,3.4,2.5,6.9,3.7,10.4
		c-4.2-2.6-8.6-4.8-13.3-6.8c-4.6-1.9-8.3-3.2-11.8-4.1c-0.6-0.1-1.1-0.3-1.7-0.4c-3.2-0.9-6.9-1.9-10.9-1.9c-1.1,0-2.3-0.2-3.7-0.3
		c-1.9-0.2-4.1-0.5-6.5-0.5c-1,0-2.3,0.1-3.6,0.6c-3.2,1.1-5.3,3.8-5.9,7.2c-0.8,4.7,0.4,8,3.9,11c2.3,2,4.7,3.1,6.7,3.9
		c0.7,0.3,1.4,0.6,2,1c5.6,3,10.6,5.6,15.2,7.9c5.6,2.8,10.4,5.9,14.8,9.4c0.9,0.8,1.9,1.4,2.8,2.1c1.8,1.3,3.5,2.6,4.8,4
		C32.9,2.6,34,3.7,35,4.6c1.2,1.1,2.3,2,3.1,3c2.2,2.7,3,5.5,2.7,9c-0.5,4.8-2.1,9.4-3.7,14.3c-0.3,0.8-0.6,1.6-0.8,2.5
		c-0.1,0.3-0.2,0.7-0.3,1c-0.3,0.8-0.5,1.6-0.8,2.5c-1.4-0.8-2.7-1.7-4.1-2.6c-2.4-1.5-4.8-3.1-7.5-4.5c-0.6-0.4-1.4-0.8-2.1-1.3
		c-1.2-0.7-2.5-1.6-4-2.3c-1.4-0.7-2.9-1.4-4.3-2.1c-2.6-1.3-5.3-2.6-8.1-3.8c-1.9-0.8-3.6-1.1-4.8-1.3c-0.5-0.1-0.9-0.1-1.2-0.2
		c-1.7-0.4-3.4-0.3-5,0.3c-2.9,1-5,3.5-5.6,6.6c-1,5.1,1.3,8.2,2.8,9.6c1.7,1.6,3.5,2.8,5,3.9C-3,39.6-2.5,40-2,40.4
		c2.5,1.8,5,3.5,7.5,5.1c3.6,2.3,6.9,4.5,10,7.1l0.4,0.3c2.1,1.8,4.1,3.4,5.8,5.3c3,3.2,3.9,6.7,3,11.5c-0.8,4.2-2.8,8.1-4.9,12
		c-1,1.8-2,3.6-3.2,5.5c-1.7,2.9-3.4,5.8-4.9,8.9c-1.6,3.3-3.4,6.5-5.3,9.8c-0.9,1.6-1.8,3.2-2.6,4.7c-0.6,1.2-1.3,2.4-1.9,3.5
		c-1.3,2.4-2.5,4.7-3.8,6.9C-2.3,121.5-2.5,121.8-2.7,122.2z"/>
</g>
<g>
	<radialGradient id="SVGID_11_" cx="28.648" cy="-231.7121" r="78.6658" gradientUnits="userSpaceOnUse">
		<stop  offset="8.703807e-02" style="stop-color:#0071BC"/>
		<stop  offset="0.1634" style="stop-color:#22B573"/>
		<stop  offset="0.3391" style="stop-color:#FCEE21"/>
		<stop  offset="0.5199" style="stop-color:#EA6044"/>
		<stop  offset="0.6642" style="stop-color:#D4145A"/>
		<stop  offset="0.8273" style="stop-color:#813A87"/>
		<stop  offset="1" style="stop-color:#0071BC"/>
	</radialGradient>
	<path class="st9" d="M11.6-153.1c-2.9,0-5.6-0.3-8-0.9c-0.1,0-0.2-0.1-0.3-0.1c-2.8-0.9-4.3-2.4-5.2-3.8c-0.7,0.2-1.3,0.2-1.8,0.2
		c-1.5,0-3-0.4-4.6-1.2c-0.1,0-0.2-0.1-0.3-0.2c-6.7-3.9-13.6-12.2-15.4-20c-3.9-0.9-7.5-3-10-4.8c-4.2-3-7.9-6.9-10-10.6
		c-0.1-0.1-0.1-0.2-0.2-0.3c-1.3-2.6-1.4-4.8-1-6.4c-1.5-0.9-2.9-2.5-3.8-5.2c0-0.1-0.1-0.2-0.1-0.3c-2-7.4-0.9-18.3,3.3-25
		c-4.2-6.8-5.3-17.6-3.3-25c0-0.1,0.1-0.2,0.1-0.3c0.9-2.7,2.4-4.3,3.8-5.2c-0.4-1.6-0.3-3.8,1-6.4c0-0.1,0.1-0.2,0.2-0.3
		c3.8-6.6,12.2-13.6,20-15.4c1.8-7.8,8.7-16.2,15.4-20c0.1-0.1,0.2-0.1,0.3-0.2c1.6-0.8,3.1-1.2,4.6-1.2c0.5,0,1.1,0,1.8,0.2
		c0.9-1.4,2.4-2.9,5.2-3.8c0.1,0,0.2-0.1,0.3-0.1c2.3-0.6,5.1-0.9,8-0.9c5.5,0,12.2,1.2,17.1,4.2c4.9-3.1,11.6-4.2,17.1-4.2
		c2.9,0,5.6,0.3,8,0.9c0.1,0,0.2,0.1,0.3,0.1c2.8,0.9,4.3,2.4,5.2,3.8c0.7-0.2,1.3-0.2,1.8-0.2c1.5,0,3,0.4,4.6,1.2
		c0.1,0,0.2,0.1,0.3,0.2c6.7,3.9,13.6,12.2,15.4,20c3.9,0.9,7.5,3,10,4.8c4.2,3,7.9,6.9,10,10.6c0.1,0.1,0.1,0.2,0.2,0.3
		c1.3,2.6,1.4,4.8,1,6.4c1.5,0.9,2.9,2.5,3.8,5.2c0,0.1,0.1,0.2,0.1,0.3c2,7.4,0.9,18.3-3.3,25c4.2,6.8,5.3,17.6,3.3,25
		c0,0.1-0.1,0.2-0.1,0.3c-0.9,2.7-2.4,4.3-3.8,5.2c0.4,1.6,0.3,3.8-1,6.4c0,0.1-0.1,0.2-0.2,0.3c-3.8,6.6-12.2,13.6-20,15.4
		c-1.8,7.8-8.7,16.2-15.4,20c-0.1,0.1-0.2,0.1-0.3,0.2c-1.6,0.8-3.1,1.2-4.6,1.2c-0.5,0-1.1,0-1.8-0.2c-0.9,1.4-2.4,2.9-5.2,3.8
		c-0.1,0-0.2,0.1-0.3,0.1c-2.3,0.6-5.1,0.9-8,0.9c-5.5,0-12.2-1.2-17.1-4.2C23.8-154.2,17-153.1,11.6-153.1z"/>
	<radialGradient id="SVGID_12_" cx="28.6479" cy="-231.712" r="73.7664" gradientUnits="userSpaceOnUse">
		<stop  offset="0" style="stop-color:#0071BC"/>
		<stop  offset="0.1727" style="stop-color:#813A87"/>
		<stop  offset="0.3358" style="stop-color:#D4145A"/>
		<stop  offset="0.4801" style="stop-color:#EA6044"/>
		<stop  offset="0.6609" style="stop-color:#FCEE21"/>
		<stop  offset="0.8366" style="stop-color:#22B573"/>
		<stop  offset="0.913" style="stop-color:#0071BC"/>
	</radialGradient>
	<path class="st10" d="M96.7-231.7c5.2-4.3,6.9-16.4,4.9-23.8c-2.4-7-8.6-0.5-17.4,4.6c-8.6,5.7-19.8,10-28.1,11.1
		c-0.1,0-0.1,0-0.2,0c-3.3,0.6-5-3.7-2.3-5.6c0,0,0.1-0.1,0.1-0.1c6.6-5.1,17.5-9.9,27.7-12c9.9-2.6,18.9-2.4,15.6-9.1
		c-3.8-6.6-13.6-14-20.3-13.3c0.6-6.7-6.8-16.5-13.3-20.3c-6.6-3.3-6.5,5.7-9.1,15.6c-2.1,10.1-6.9,21.1-12,27.7
		c0,0-0.1,0.1-0.1,0.1c-1.9,2.7-6.1,0.9-5.6-2.3c0-0.1,0-0.1,0-0.2c1.1-8.3,5.4-19.4,11.1-28.1c5.1-8.8,11.6-15.1,4.6-17.4
		c-7.3-1.9-19.5-0.2-23.8,4.9c-4.3-5.2-16.4-6.9-23.8-4.9c-7,2.4-0.5,8.6,4.6,17.4c5.7,8.6,10,19.8,11.1,28.1c0,0.1,0,0.1,0,0.2
		c0.6,3.3-3.7,5-5.6,2.3c0,0-0.1-0.1-0.1-0.1c-5.1-6.6-9.9-17.5-12-27.7c-2.6-9.9-2.4-18.9-9.1-15.6c-6.6,3.8-14,13.6-13.3,20.3
		c-6.7-0.6-16.5,6.8-20.3,13.3c-3.3,6.6,5.7,6.5,15.6,9.1c10.1,2.1,21.1,6.9,27.7,12c0,0,0.1,0.1,0.1,0.1c2.7,1.9,0.9,6.1-2.3,5.6
		c-0.1,0-0.1,0-0.2,0c-8.3-1.1-19.4-5.4-28.1-11.1c-8.8-5.1-15.1-11.6-17.4-4.6c-1.9,7.3-0.2,19.5,4.9,23.8
		c-5.2,4.3-6.9,16.4-4.9,23.8c2.4,7,8.6,0.5,17.4-4.6c8.6-5.7,19.8-10,28.1-11.1c0.1,0,0.1,0,0.2,0c3.3-0.6,5,3.7,2.3,5.6
		c0,0-0.1,0.1-0.1,0.1c-6.6,5.1-17.5,9.9-27.7,12c-9.9,2.6-18.9,2.4-15.6,9.1c3.8,6.6,13.6,14,20.3,13.3
		c-0.6,6.7,6.8,16.5,13.3,20.3c6.6,3.3,6.5-5.7,9.1-15.6C5-189,9.8-200,14.9-206.6c0,0,0.1-0.1,0.1-0.1c1.9-2.7,6.1-0.9,5.6,2.3
		c0,0.1,0,0.1,0,0.2c-1.1,8.3-5.4,19.4-11.1,28.1c-5.1,8.8-11.6,15.1-4.6,17.4c7.3,1.9,19.5,0.2,23.8-4.9c4.3,5.2,16.4,6.9,23.8,4.9
		c7-2.4,0.5-8.6-4.6-17.4c-5.7-8.6-10-19.8-11.1-28.1c0-0.1,0-0.1,0-0.2c-0.6-3.3,3.7-5,5.6-2.3c0,0,0.1,0.1,0.1,0.1
		c5.1,6.6,9.9,17.5,12,27.7c2.6,9.9,2.4,18.9,9.1,15.6c6.6-3.8,14-13.6,13.3-20.3c6.7,0.6,16.5-6.8,20.3-13.3
		c3.3-6.6-5.7-6.5-15.6-9.1c-10.1-2.1-21.1-6.9-27.7-12c0,0-0.1-0.1-0.1-0.1c-2.7-1.9-0.9-6.1,2.3-5.6c0.1,0,0.1,0,0.2,0
		c8.3,1.1,19.4,5.4,28.1,11.1c8.8,5.1,15.1,11.6,17.4,4.6C103.6-215.3,101.9-227.4,96.7-231.7z"/>
	<path class="st11" d="M11.6-162.8c-1.6,0-3.1-0.1-4.4-0.4c0.7-1.4,2-3.3,3-4.9c1.1-1.6,2.3-3.5,3.4-5.5c6-9.1,10.6-20.8,11.7-29.9
		l0,0c0.4-2.4-0.2-4.7-1.7-6.5c-1.5-1.8-3.8-2.9-6.2-2.9c-2.6,0-5,1.2-6.5,3.4l0,0C5.4-202.2,0.4-190.6-1.9-180
		c-0.6,2.2-1,4.4-1.4,6.3c-0.4,1.8-0.9,4.2-1.3,5.6c-5.2-3.5-10.4-11.2-10-15c0.1-1.4-0.4-2.9-1.4-3.9c-0.9-0.9-2.2-1.4-3.5-1.4
		c-0.1,0-0.3,0-0.4,0c-0.1,0-0.2,0-0.3,0c-4.1,0-11.3-5-14.7-10c1.5-0.5,3.8-1,5.6-1.3c1.9-0.4,4.1-0.8,6.3-1.4
		c10.6-2.2,22.2-7.2,29.4-12.8l0,0c2.9-2,4.1-5.6,3.1-8.9c-1.1-3.4-4.1-5.6-7.6-5.6c-0.5,0-1,0-1.4,0.1l-0.1,0
		c-9.1,1.2-20.8,5.8-29.9,11.7c-2,1.2-3.8,2.4-5.5,3.5c-1.6,1-3.5,2.3-4.9,3c-1.2-6.2,0.5-15.2,3.5-17.7c1.1-0.9,1.8-2.3,1.8-3.8
		c0-1.5-0.6-2.8-1.8-3.8c-3-2.5-4.7-11.6-3.5-17.7c1.4,0.7,3.4,2,4.9,3c1.6,1.1,3.5,2.3,5.5,3.4c9.1,6,20.8,10.6,29.9,11.7l0.1,0
		c0.5,0.1,0.9,0.1,1.4,0.1c3.5,0,6.5-2.3,7.6-5.6c1-3.3-0.2-6.9-3-8.9l0,0c-7.3-5.6-18.8-10.6-29.4-12.8c-2.2-0.6-4.4-1-6.3-1.4
		c-1.8-0.4-4.2-0.9-5.6-1.3c3.4-5,10.6-10,14.7-10c0.1,0,0.2,0,0.3,0c0.1,0,0.3,0,0.4,0c1.3,0,2.5-0.5,3.5-1.4c1-1,1.5-2.5,1.4-3.9
		c-0.4-3.9,4.8-11.5,10-15c0.5,1.5,1,3.8,1.3,5.6c0.4,1.9,0.8,4.1,1.4,6.3C0.4-272.8,5.4-261.2,11-254l0,0.1
		c1.5,2.2,3.9,3.4,6.5,3.4c2.4,0,4.7-1.1,6.2-2.9c1.5-1.8,2.1-4.2,1.7-6.5l0-0.1c-1.2-9.1-5.8-20.8-11.7-29.9
		c-1.2-2-2.4-3.8-3.4-5.5c-1-1.6-2.3-3.5-3-4.9c1.3-0.3,2.8-0.4,4.4-0.4c6.5,0,11.7,2,13.3,3.9c0.9,1.1,2.3,1.8,3.8,1.8h0
		c1.5,0,2.8-0.6,3.8-1.8c1.6-1.9,6.8-3.9,13.3-3.9c1.6,0,3.1,0.1,4.4,0.4c-0.7,1.4-2,3.3-3,4.9c-1.1,1.6-2.3,3.5-3.4,5.5
		c-6,9.1-10.6,20.8-11.7,29.9l0,0.1c-0.4,2.3,0.2,4.7,1.7,6.5c1.5,1.8,3.8,2.9,6.2,2.9c2.6,0,5-1.2,6.5-3.4l0,0
		c5.6-7.3,10.6-18.8,12.8-29.4c0.6-2.2,1-4.4,1.4-6.3c0.4-1.8,0.9-4.2,1.3-5.6c5.2,3.5,10.4,11.2,10,15c-0.1,1.4,0.4,2.9,1.4,3.9
		c0.9,0.9,2.2,1.4,3.5,1.4c0.1,0,0.3,0,0.4,0c0.1,0,0.2,0,0.3,0c4.1,0,11.3,5,14.7,10c-1.5,0.5-3.8,1-5.6,1.3
		c-1.9,0.4-4.1,0.8-6.3,1.4c-10.6,2.2-22.2,7.2-29.4,12.8l0,0c-2.9,2-4.1,5.6-3,8.9c1.1,3.4,4.1,5.6,7.6,5.6c0.5,0,1,0,1.4-0.1
		l0.1,0c9.1-1.2,20.8-5.8,29.9-11.7c2-1.2,3.8-2.4,5.5-3.5c1.6-1,3.5-2.3,4.9-3c1.2,6.2-0.5,15.2-3.5,17.7c-1.1,0.9-1.8,2.3-1.8,3.8
		c0,1.5,0.6,2.8,1.8,3.8c3,2.5,4.7,11.6,3.5,17.7c-1.4-0.7-3.4-2-4.9-3c-1.6-1.1-3.5-2.3-5.5-3.4c-9.1-6-20.8-10.6-29.9-11.7l0,0
		c-0.5-0.1-1-0.1-1.5-0.1c-3.5,0-6.5,2.3-7.6,5.6c-1,3.3,0.2,6.9,3,8.9l0,0c7.3,5.6,18.8,10.6,29.4,12.8c2.2,0.6,4.4,1,6.3,1.4
		c1.8,0.4,4.2,0.9,5.6,1.3c-3.4,5-10.6,10-14.7,10c-0.1,0-0.2,0-0.3,0c-0.1,0-0.3,0-0.4,0c-1.3,0-2.5,0.5-3.5,1.4
		c-1,1-1.5,2.5-1.4,3.9c0.4,3.9-4.8,11.5-10,15c-0.5-1.5-1-3.8-1.3-5.6c-0.4-1.9-0.8-4.1-1.4-6.3c-2.2-10.6-7.2-22.2-12.8-29.4
		l0-0.1c-1.5-2.2-3.9-3.4-6.5-3.4c-2.4,0-4.7,1.1-6.2,2.9c-1.5,1.8-2.1,4.2-1.7,6.5l0,0.1c1.2,9.1,5.8,20.8,11.7,29.9
		c1.2,2,2.4,3.8,3.4,5.5c1,1.6,2.3,3.5,3,4.9c-1.3,0.3-2.8,0.4-4.4,0.4c-6.5,0-11.7-2-13.3-3.9c-0.9-1.1-2.3-1.8-3.8-1.8h0
		c-1.5,0-2.8,0.6-3.8,1.8C23.3-164.9,18.1-162.8,11.6-162.8z"/>
	<linearGradient id="SVGID_13_" gradientUnits="userSpaceOnUse" x1="-40.2214" y1="-231.7121" x2="97.517" y2="-231.7121">
		<stop  offset="8.703807e-02" style="stop-color:#0071BC"/>
		<stop  offset="0.1634" style="stop-color:#22B573"/>
		<stop  offset="0.3391" style="stop-color:#FCEE21"/>
		<stop  offset="0.5199" style="stop-color:#EA6044"/>
		<stop  offset="0.6642" style="stop-color:#D4145A"/>
		<stop  offset="0.8273" style="stop-color:#813A87"/>
		<stop  offset="1" style="stop-color:#0071BC"/>
	</linearGradient>
	<path class="st12" d="M11.6-162.8c-1.6,0-3.1-0.1-4.4-0.4c0.7-1.4,2-3.3,3-4.9c1.1-1.6,2.3-3.5,3.4-5.5c6-9.1,10.6-20.8,11.7-29.9
		l0,0c0.4-2.4-0.2-4.7-1.7-6.5c-1.5-1.8-3.8-2.9-6.2-2.9c-2.6,0-5,1.2-6.5,3.4l0,0C5.4-202.2,0.4-190.6-1.9-180
		c-0.6,2.2-1,4.4-1.4,6.3c-0.4,1.8-0.9,4.2-1.3,5.6c-5.2-3.5-10.4-11.2-10-15c0.1-1.4-0.4-2.9-1.4-3.9c-0.9-0.9-2.2-1.4-3.5-1.4
		c-0.1,0-0.3,0-0.4,0c-0.1,0-0.2,0-0.3,0c-4.1,0-11.3-5-14.7-10c1.5-0.5,3.8-1,5.6-1.3c1.9-0.4,4.1-0.8,6.3-1.4
		c10.6-2.2,22.2-7.2,29.4-12.8l0,0c2.9-2,4.1-5.6,3.1-8.9c-1.1-3.4-4.1-5.6-7.6-5.6c-0.5,0-1,0-1.4,0.1l-0.1,0
		c-9.1,1.2-20.8,5.8-29.9,11.7c-2,1.2-3.8,2.4-5.5,3.5c-1.6,1-3.5,2.3-4.9,3c-1.2-6.2,0.5-15.2,3.5-17.7c1.1-0.9,1.8-2.3,1.8-3.8
		c0-1.5-0.6-2.8-1.8-3.8c-3-2.5-4.7-11.6-3.5-17.7c1.4,0.7,3.4,2,4.9,3c1.6,1.1,3.5,2.3,5.5,3.4c9.1,6,20.8,10.6,29.9,11.7l0.1,0
		c0.5,0.1,0.9,0.1,1.4,0.1c3.5,0,6.5-2.3,7.6-5.6c1-3.3-0.2-6.9-3-8.9l0,0c-7.3-5.6-18.8-10.6-29.4-12.8c-2.2-0.6-4.4-1-6.3-1.4
		c-1.8-0.4-4.2-0.9-5.6-1.3c3.4-5,10.6-10,14.7-10c0.1,0,0.2,0,0.3,0c0.1,0,0.3,0,0.4,0c1.3,0,2.5-0.5,3.5-1.4c1-1,1.5-2.5,1.4-3.9
		c-0.4-3.9,4.8-11.5,10-15c0.5,1.5,1,3.8,1.3,5.6c0.4,1.9,0.8,4.1,1.4,6.3C0.4-272.8,5.4-261.2,11-254l0,0.1
		c1.5,2.2,3.9,3.4,6.5,3.4c2.4,0,4.7-1.1,6.2-2.9c1.5-1.8,2.1-4.2,1.7-6.5l0-0.1c-1.2-9.1-5.8-20.8-11.7-29.9
		c-1.2-2-2.4-3.8-3.4-5.5c-1-1.6-2.3-3.5-3-4.9c1.3-0.3,2.8-0.4,4.4-0.4c6.5,0,11.7,2,13.3,3.9c0.9,1.1,2.3,1.8,3.8,1.8h0
		c1.5,0,2.8-0.6,3.8-1.8c1.6-1.9,6.8-3.9,13.3-3.9c1.6,0,3.1,0.1,4.4,0.4c-0.7,1.4-2,3.3-3,4.9c-1.1,1.6-2.3,3.5-3.4,5.5
		c-6,9.1-10.6,20.8-11.7,29.9l0,0.1c-0.4,2.3,0.2,4.7,1.7,6.5c1.5,1.8,3.8,2.9,6.2,2.9c2.6,0,5-1.2,6.5-3.4l0,0
		c5.6-7.3,10.6-18.8,12.8-29.4c0.6-2.2,1-4.4,1.4-6.3c0.4-1.8,0.9-4.2,1.3-5.6c5.2,3.5,10.4,11.2,10,15c-0.1,1.4,0.4,2.9,1.4,3.9
		c0.9,0.9,2.2,1.4,3.5,1.4c0.1,0,0.3,0,0.4,0c0.1,0,0.2,0,0.3,0c4.1,0,11.3,5,14.7,10c-1.5,0.5-3.8,1-5.6,1.3
		c-1.9,0.4-4.1,0.8-6.3,1.4c-10.6,2.2-22.2,7.2-29.4,12.8l0,0c-2.9,2-4.1,5.6-3,8.9c1.1,3.4,4.1,5.6,7.6,5.6c0.5,0,1,0,1.4-0.1
		l0.1,0c9.1-1.2,20.8-5.8,29.9-11.7c2-1.2,3.8-2.4,5.5-3.5c1.6-1,3.5-2.3,4.9-3c1.2,6.2-0.5,15.2-3.5,17.7c-1.1,0.9-1.8,2.3-1.8,3.8
		c0,1.5,0.6,2.8,1.8,3.8c3,2.5,4.7,11.6,3.5,17.7c-1.4-0.7-3.4-2-4.9-3c-1.6-1.1-3.5-2.3-5.5-3.4c-9.1-6-20.8-10.6-29.9-11.7l0,0
		c-0.5-0.1-1-0.1-1.5-0.1c-3.5,0-6.5,2.3-7.6,5.6c-1,3.3,0.2,6.9,3,8.9l0,0c7.3,5.6,18.8,10.6,29.4,12.8c2.2,0.6,4.4,1,6.3,1.4
		c1.8,0.4,4.2,0.9,5.6,1.3c-3.4,5-10.6,10-14.7,10c-0.1,0-0.2,0-0.3,0c-0.1,0-0.3,0-0.4,0c-1.3,0-2.5,0.5-3.5,1.4
		c-1,1-1.5,2.5-1.4,3.9c0.4,3.9-4.8,11.5-10,15c-0.5-1.5-1-3.8-1.3-5.6c-0.4-1.9-0.8-4.1-1.4-6.3c-2.2-10.6-7.2-22.2-12.8-29.4
		l0-0.1c-1.5-2.2-3.9-3.4-6.5-3.4c-2.4,0-4.7,1.1-6.2,2.9c-1.5,1.8-2.1,4.2-1.7,6.5l0,0.1c1.2,9.1,5.8,20.8,11.7,29.9
		c1.2,2,2.4,3.8,3.4,5.5c1,1.6,2.3,3.5,3,4.9c-1.3,0.3-2.8,0.4-4.4,0.4c-6.5,0-11.7-2-13.3-3.9c-0.9-1.1-2.3-1.8-3.8-1.8h0
		c-1.5,0-2.8,0.6-3.8,1.8C23.3-164.9,18.1-162.8,11.6-162.8z"/>
	<path class="st13" d="M-22.3-265.3c11,2.3,23,7.5,30.6,13.4c0.4,0.3,0.7,0.6,1.1,0.9c-0.3-0.3-0.6-0.7-0.9-1.1l0,0
		c-5.8-7.6-11.1-19.6-13.4-30.6c-0.6-2.3-1-4.4-1.4-6.4c0-0.2-0.1-0.3-0.1-0.5c-3,3.3-5.2,7.4-5.1,9c0.2,2.4-0.6,4.7-2.3,6.4
		c-1.5,1.5-3.5,2.3-5.7,2.3c-0.2,0-0.5,0-0.7,0c0,0,0,0-0.1,0c-1.8,0-5.7,2.1-9,5.1c0.2,0,0.4,0.1,0.5,0.1
		C-26.8-266.3-24.6-265.8-22.3-265.3z"/>
	<path class="st13" d="M79.6-265.3c2.3-0.6,4.4-1,6.3-1.4c0,0,0.4-0.1,0.6-0.1c-3.2-3-7.2-5.1-9-5.1c0,0,0,0-0.1,0
		c-0.2,0-0.5,0-0.7,0c-2.1,0-4.2-0.8-5.7-2.3c-1.7-1.7-2.5-4-2.3-6.4c0.1-1.6-2-5.7-5.1-9c0,0.2-0.1,0.3-0.1,0.5
		c-0.4,1.9-0.8,4.1-1.4,6.4c-2.3,11-7.5,23-13.4,30.6c-0.3,0.4-0.6,0.8-0.9,1.1c0.3-0.3,0.7-0.6,1.1-0.9
		C56.7-257.7,68.6-262.9,79.6-265.3z"/>
	<path class="st13" d="M1.3-231.7c-0.5,0-0.9-0.1-1.4-0.2l0,0c-9.5-1.3-21.7-6-31.1-12.2c-2-1.2-3.9-2.4-5.5-3.5
		c-0.1-0.1-0.3-0.2-0.4-0.3c0.2,4.5,1.5,8.9,2.8,10c1.8,1.5,2.9,3.8,2.9,6.2c0,2.4-1.1,4.6-2.9,6.2c-1.3,1.1-2.6,5.5-2.8,10
		c0.1-0.1,0.3-0.2,0.4-0.3c1.6-1.1,3.5-2.3,5.5-3.5c9.4-6.1,21.6-10.9,31.1-12.2C0.4-231.6,0.9-231.7,1.3-231.7z"/>
	<path class="st13" d="M-22.3-198.2c-2.3,0.6-4.4,1-6.4,1.4c-0.2,0-0.3,0.1-0.5,0.1c3.2,3,7.2,5.1,9,5.1c0,0,0,0,0.1,0
		c0.2,0,0.5,0,0.7,0c2.1,0,4.2,0.8,5.7,2.3c1.7,1.7,2.5,4,2.3,6.4c-0.1,1.6,2,5.7,5.1,9c0-0.2,0.1-0.3,0.1-0.5
		c0.4-1.9,0.8-4.1,1.4-6.4c2.3-11,7.5-23,13.4-30.6c0.3-0.4,0.6-0.8,0.9-1.1c-0.4,0.3-0.7,0.6-1.1,0.9
		C0.6-205.7-11.4-200.5-22.3-198.2z"/>
	<path class="st13" d="M16.3-291.5c6.1,9.4,10.9,21.6,12.2,31.1c0.1,0.5,0.1,1,0.2,1.4c0-0.5,0.1-1,0.2-1.4
		c1.3-9.5,6-21.7,12.2-31.1c1.2-2,2.4-3.9,3.5-5.5c0.1-0.1,0.2-0.3,0.3-0.4c-5.9,0.2-9.4,2.1-10,2.8c-1.5,1.8-3.8,2.9-6.2,2.9
		c-2.4,0-4.6-1.1-6.2-2.9c-0.7-0.9-4.5-2.6-10-2.8c0.1,0.2,0.2,0.3,0.3,0.5C13.9-295.4,15.1-293.5,16.3-291.5z"/>
	<path class="st13" d="M79.6-198.2c-11-2.3-23-7.5-30.6-13.4c-0.4-0.3-0.8-0.6-1.1-0.9c0.3,0.3,0.6,0.7,0.9,1.1
		c5.8,7.6,11,19.6,13.4,30.6c0.6,2.3,1,4.4,1.4,6.4c0,0.2,0.1,0.3,0.1,0.5c3-3.3,5.2-7.4,5.1-9c-0.2-2.4,0.6-4.7,2.3-6.4
		c1.5-1.5,3.5-2.3,5.7-2.3c0.2,0,0.5,0,0.7,0c0,0,0,0,0.1,0c1.8,0,5.7-2.1,9-5.1c-0.2,0-0.4-0.1-0.5-0.1
		C84.1-197.1,81.9-197.6,79.6-198.2z"/>
	<path class="st13" d="M91.6-225.6c-1.8-1.5-2.9-3.8-2.9-6.2c0-2.4,1.1-4.6,2.9-6.2c1.3-1.1,2.6-5.5,2.8-10
		c-0.1,0.1-0.3,0.2-0.4,0.3c-1.6,1.1-3.5,2.3-5.5,3.5c-9.4,6.1-21.6,10.9-31.1,12.2c-0.5,0.1-0.9,0.1-1.4,0.2c0.5,0,0.9,0.1,1.4,0.2
		c9.5,1.3,21.7,6,31.1,12.2c2,1.2,3.9,2.4,5.5,3.5c0.1,0.1,0.3,0.2,0.4,0.3C94.2-220.1,92.9-224.5,91.6-225.6z"/>
	<path class="st13" d="M41-171.9c-6.1-9.4-10.9-21.6-12.2-31.1c-0.1-0.5-0.1-1-0.2-1.5c0,0.5-0.1,1-0.2,1.5
		c-1.3,9.5-6,21.7-12.2,31.1c-1.2,2-2.4,3.9-3.5,5.5c-0.1,0.1-0.2,0.3-0.3,0.4c5.9-0.2,9.4-2.1,10-2.8c1.5-1.8,3.8-2.9,6.2-2.9
		c2.4,0,4.6,1.1,6.2,2.9c0.7,0.9,4.5,2.6,10,2.8c-0.1-0.2-0.2-0.3-0.3-0.4C43.4-168.1,42.2-169.9,41-171.9z"/>
</g>
</svg>
