<?xml version="1.0" encoding="utf-8"?>
<!-- Generator: Adobe Illustrator 19.0.0, SVG Export Plug-In . SVG Version: 6.00 Build 0)  -->
<svg version="1.1" id="_x32_" xmlns="http://www.w3.org/2000/svg" xmlns:xlink="http://www.w3.org/1999/xlink" x="0px" y="0px"
	 viewBox="586 -681 1512 1512" style="enable-background:new 586 -681 1512 1512;" xml:space="preserve">
<style type="text/css">
	.st0{fill:none;stroke:#FFFFFF;stroke-width:7.423675e-02;stroke-miterlimit:10;}
</style>
<path class="st0" d="M1320.4,66.2l4,9.8c0.3,0.7,0.9,1.2,1.7,1.2l10.6,0.8c1.7,0.1,2.5,2.3,1.1,3.4l-8.1,6.9c-0.6,0.5-0.8,1.2-0.6,2
	l2.5,10.3c0.4,1.7-1.4,3.1-2.9,2.1l-9-5.6c-0.6-0.4-1.4-0.4-2.1,0l-9,5.6c-1.5,0.9-3.3-0.4-2.9-2.1l2.5-10.3c0.2-0.7-0.1-1.5-0.6-2
	l-8.1-6.9c-1.3-1.1-0.6-3.3,1.1-3.4l10.6-0.8c0.7-0.1,1.4-0.5,1.7-1.2l4-9.8C1317.5,64.6,1319.8,64.6,1320.4,66.2z"/>
</svg>
