<!-- Generator: Adobe Illustrator 19.0.0, SVG Export Plug-In . SVG Version: 6.00 Build 0)  -->
<svg version="1.1" id="svgflower5-1" xmlns="http://www.w3.org/2000/svg" xmlns:xlink="http://www.w3.org/1999/xlink" x="0px" y="0px"
	 viewBox="0 0 570.4 570.4" style="enable-background:new 0 0 570.4 570.4;" xml:space="preserve" onclick="playpalette();">
<style type="text/css">
	.svgflower4-1-st0{fill:url(#svgflower4-1-st0);}
	.svgflower4-1-st1{fill:url(#svgflower4-1-st1);}
	.svgflower4-1-st2{fill:url(#svgflower4-1-st2);}
</style>
<radialGradient id="svgflower4-1-st0" cx="282.1297" cy="287.226" r="247.1763" gradientTransform="matrix(0.9997 -2.333289e-02 2.333289e-02 0.9997 -6.4609 6.593)" gradientUnits="userSpaceOnUse">
	<stop  offset="0.6558" style="stop-color:#111111"/>
	<stop  offset="1" style="stop-color:#222222"/>
</radialGradient>
<path class="svgflower4-1-st0" d="M280.8,35.1c25.5-0.2,45.4,34.5,68.4,41.8c23.9,7.6,60.1-8.9,80,5.5c20.1,14.5,16.1,54.1,30.8,74.1
	c14.6,19.8,53.7,27.6,61.6,51.4c7.6,23-18.9,52.5-18.7,78c0.2,25.5,27,54.7,19.6,77.8c-7.6,23.9-46.7,32.2-61,52.1
	c-14.5,20.1-9.9,59.7-29.9,74.4c-19.8,14.6-56.1-1.5-79.9,6.4c-23,7.6-42.4,42.4-67.9,42.6c-25.5,0.2-45.4-34.5-68.4-41.8
	c-23.9-7.6-60.1,8.9-80-5.5c-20.1-14.5-16.1-54.1-30.8-74.1C90,398.1,50.9,390.3,43,366.5c-7.6-23,18.9-52.5,18.7-78
	c-0.2-25.5-27-54.7-19.6-77.8c7.6-23.9,46.7-32.2,61-52.1c14.5-20.1,9.9-59.7,29.9-74.4c19.8-14.6,56.1,1.5,79.9-6.4
	C235.8,70.1,255.3,35.3,280.8,35.1z"/>
<radialGradient id="svgflower4-1-st1" cx="282.1292" cy="287.2259" r="162.7214" gradientTransform="matrix(0.9997 -2.333289e-02 2.333289e-02 0.9997 -6.4609 6.593)" gradientUnits="userSpaceOnUse">
	<stop  offset="0.4227" style="stop-color:#333333"/>
	<stop  offset="0.8967" style="stop-color:#222222"/>
</radialGradient>
<path class="svgflower4-1-st1" d="M239.9,159.3c-15.1,5-43.5-15.2-56-6c-12.7,9.4-1.8,42.5-11,55.3c-9.1,12.7-44.1,12.9-48.9,28.1
	c-4.7,14.7,23.6,35,23.7,51.2c0.1,16.2-27.9,36.9-23.1,51.5c5,15.1,40,14.9,49.2,27.5c9.4,12.7-1.2,46,11.6,55.2
	c12.7,9.1,40.8-11.5,56-6.6c14.7,4.7,25.6,37.9,41.8,37.8c16.2-0.1,26.8-33.4,41.4-38.2c15.1-5,43.5,15.2,56,6
	c12.7-9.4,1.8-42.5,11-55.3c9.1-12.7,44.1-12.9,48.9-28.1c4.7-14.7-23.6-35-23.7-51.2c-0.1-16.2,27.9-36.9,23.1-51.5
	c-5-15.1-40-14.9-49.2-27.5c-9.4-12.7,1.2-46-11.6-55.2c-12.7-9.1-40.8,11.5-56,6.6c-14.7-4.7-25.6-37.9-41.8-37.8
	C265.1,121.2,254.5,154.5,239.9,159.3z"/>
<radialGradient id="svgflower4-1-st2" cx="282.1276" cy="287.2243" r="78.4155" gradientTransform="matrix(0.9997 -2.333289e-02 2.333289e-02 0.9997 -6.4609 6.593)" gradientUnits="userSpaceOnUse">
	<stop  offset="0" style="stop-color:#222222"/>
	<stop  offset="1" style="stop-color:#111111"/>
</radialGradient>
<path class="svgflower4-1-st2" d="M281.8,207.1c6.9,0,9,31.7,15.2,33.7c6.5,2.1,26.5-22.6,31.9-18.7c5.5,3.9-11.5,30.8-7.5,36.3
	c4,5.4,34.7-2.9,36.9,3.6c2.1,6.3-27.4,18-27.4,24.9c0,6.9,29.7,18.3,27.7,24.6c-2.1,6.5-32.9-1.4-36.8,4
	c-3.9,5.5,13.4,32.2,7.9,36.2c-5.4,4-25.7-20.5-32.2-18.3c-6.3,2.1-7.9,33.9-14.8,33.9c-6.9,0-9-31.7-15.2-33.7
	c-6.5-2.1-26.5,22.6-31.9,18.7c-5.5-3.9,11.5-30.8,7.5-36.3c-4-5.4-34.7,2.9-36.9-3.6c-2.1-6.3,27.4-18,27.4-24.9
	c0-6.9-29.7-18.3-27.7-24.6c2.1-6.5,32.9,1.4,36.8-4c3.9-5.5-13.4-32.2-7.9-36.2c5.4-4,25.7,20.5,32.2,18.3
	C273.2,238.9,274.9,207.1,281.8,207.1z"/>
</svg>
