<?xml version="1.0" encoding="utf-8"?>
<!-- Generator: Adobe Illustrator 19.0.0, SVG Export Plug-In . SVG Version: 6.00 Build 0)  -->
<svg version="1.1" id="_x32_" xmlns="http://www.w3.org/2000/svg" xmlns:xlink="http://www.w3.org/1999/xlink" x="0px" y="0px"
	 viewBox="0 0 570.4 570.4" style="enable-background:new 0 0 570.4 570.4;" xml:space="preserve">
<style type="text/css">
	.st0{fill:none;}
	.st1{fill:url(#SVGID_1_);}
	.st2{fill:url(#SVGID_2_);}
	.st3{fill:url(#SVGID_3_);}
</style>
<path class="st0" d="M503.5,285.2c16.5-13.7,21.9-52.6,15.7-76.2c-7.6-22.5-27.7-1.7-55.9,14.8c-27.7,18.2-63.4,32.1-89.9,35.5
	c-0.2,0-0.3,0.1-0.5,0.1c-10.4,1.8-16.1-11.8-7.4-17.9c0.1-0.1,0.3-0.2,0.4-0.3c21.1-16.3,56.2-31.8,88.6-38.5
	c31.6-8.3,60.5-7.8,50-29c-12.2-21.1-43.6-44.7-65-42.8c2-21.4-21.7-52.7-42.7-65c-21.2-10.5-20.7,18.4-29,50
	c-6.7,32.4-22.2,67.5-38.5,88.6c-0.1,0.1-0.2,0.3-0.3,0.4c-6.1,8.7-19.7,3-17.9-7.4c0-0.2,0.1-0.3,0.1-0.5
	c3.4-26.4,17.3-62.2,35.5-89.9C363.2,79.1,384,59,361.6,51.4c-23.5-6.2-62.4-0.8-76.2,15.7c-13.7-16.5-52.6-22-76.2-15.7
	c-22.5,7.6-1.7,27.7,14.8,55.9c18.2,27.7,32.1,63.4,35.5,89.9c0,0.2,0.1,0.3,0.1,0.5c1.8,10.4-11.8,16.1-17.9,7.4
	c-0.1-0.1-0.2-0.3-0.3-0.4c-16.3-21.1-31.8-56.2-38.5-88.6c-8.3-31.6-7.8-60.5-29-50c-21.1,12.2-44.7,43.6-42.7,65
	c-21.4-2-52.7,21.7-65,42.8c-10.5,21.2,18.4,20.7,50,29c32.4,6.7,67.5,22.2,88.6,38.5c0.1,0.1,0.3,0.2,0.4,0.3
	c8.7,6.1,3,19.7-7.4,17.9c-0.2,0-0.3-0.1-0.5-0.1c-26.4-3.4-62.2-17.3-89.9-35.5c-28.2-16.5-48.3-37.3-55.9-14.8
	c-6.2,23.5-0.8,62.4,15.7,76.2c-16.5,13.7-21.9,52.6-15.7,76.2c7.6,22.5,27.7,1.7,55.9-14.8c27.7-18.2,63.4-32.1,89.9-35.5
	c0.2,0,0.3-0.1,0.5-0.1c10.4-1.8,16.1,11.8,7.4,17.9c-0.1,0.1-0.3,0.2-0.4,0.3c-21.1,16.3-56.2,31.8-88.6,38.5
	c-31.6,8.3-60.5,7.8-50,29c12.2,21.1,43.6,44.7,65,42.8c-2,21.4,21.7,52.7,42.7,65c21.2,10.5,20.7-18.4,29-50
	c6.7-32.4,22.2-67.5,38.5-88.6c0.1-0.1,0.2-0.3,0.3-0.4c6.1-8.7,19.7-3,17.9,7.4c0,0.2-0.1,0.3-0.1,0.5
	c-3.4,26.4-17.3,62.2-35.5,89.9c-16.5,28.2-37.3,48.3-14.8,55.9c23.5,6.2,62.4,0.8,76.2-15.7c13.7,16.5,52.6,22,76.2,15.7
	c22.5-7.6,1.7-27.7-14.8-55.9c-18.2-27.7-32.1-63.4-35.5-89.9c0-0.2-0.1-0.3-0.1-0.5c-1.8-10.4,11.8-16.1,17.9-7.4
	c0.1,0.1,0.2,0.3,0.3,0.4c16.3,21.1,31.8,56.2,38.5,88.6c8.3,31.6,7.8,60.5,29,50c21.1-12.2,44.7-43.6,42.7-65
	c21.4,2,52.7-21.7,65-42.8c10.5-21.2-18.4-20.7-50-29c-32.4-6.7-67.5-22.2-88.6-38.5c-0.1-0.1-0.3-0.2-0.4-0.3
	c-8.7-6.1-3-19.7,7.4-17.9c0.2,0,0.3,0.1,0.5,0.1c26.4,3.4,62.2,17.3,89.9,35.5c28.2,16.5,48.3,37.3,55.9,14.8
	C525.4,337.8,520,298.9,503.5,285.2z"/>
<path class="st0" d="M503.5,285.2c16.5-13.7,21.9-52.6,15.7-76.2c-7.6-22.5-27.7-1.7-55.9,14.8c-27.7,18.2-63.4,32.1-89.9,35.5
	c-0.2,0-0.3,0.1-0.5,0.1c-10.4,1.8-16.1-11.8-7.4-17.9c0.1-0.1,0.3-0.2,0.4-0.3c21.1-16.3,56.2-31.8,88.6-38.5
	c31.6-8.3,60.5-7.8,50-29c-12.2-21.1-43.6-44.7-65-42.8c2-21.4-21.7-52.7-42.7-65c-21.2-10.5-20.7,18.4-29,50
	c-6.7,32.4-22.2,67.5-38.5,88.6c-0.1,0.1-0.2,0.3-0.3,0.4c-6.1,8.7-19.7,3-17.9-7.4c0-0.2,0.1-0.3,0.1-0.5
	c3.4-26.4,17.3-62.2,35.5-89.9C363.2,79.1,384,59,361.6,51.4c-23.5-6.2-62.4-0.8-76.2,15.7c-13.7-16.5-52.6-22-76.2-15.7
	c-22.5,7.6-1.7,27.7,14.8,55.9c18.2,27.7,32.1,63.4,35.5,89.9c0,0.2,0.1,0.3,0.1,0.5c1.8,10.4-11.8,16.1-17.9,7.4
	c-0.1-0.1-0.2-0.3-0.3-0.4c-16.3-21.1-31.8-56.2-38.5-88.6c-8.3-31.6-7.8-60.5-29-50c-21.1,12.2-44.7,43.6-42.7,65
	c-21.4-2-52.7,21.7-65,42.8c-10.5,21.2,18.4,20.7,50,29c32.4,6.7,67.5,22.2,88.6,38.5c0.1,0.1,0.3,0.2,0.4,0.3
	c8.7,6.1,3,19.7-7.4,17.9c-0.2,0-0.3-0.1-0.5-0.1c-26.4-3.4-62.2-17.3-89.9-35.5c-28.2-16.5-48.3-37.3-55.9-14.8
	c-6.2,23.5-0.8,62.4,15.7,76.2c-16.5,13.7-21.9,52.6-15.7,76.2c7.6,22.5,27.7,1.7,55.9-14.8c27.7-18.2,63.4-32.1,89.9-35.5
	c0.2,0,0.3-0.1,0.5-0.1c10.4-1.8,16.1,11.8,7.4,17.9c-0.1,0.1-0.3,0.2-0.4,0.3c-21.1,16.3-56.2,31.8-88.6,38.5
	c-31.6,8.3-60.5,7.8-50,29c12.2,21.1,43.6,44.7,65,42.8c-2,21.4,21.7,52.7,42.7,65c21.2,10.5,20.7-18.4,29-50
	c6.7-32.4,22.2-67.5,38.5-88.6c0.1-0.1,0.2-0.3,0.3-0.4c6.1-8.7,19.7-3,17.9,7.4c0,0.2-0.1,0.3-0.1,0.5
	c-3.4,26.4-17.3,62.2-35.5,89.9c-16.5,28.2-37.3,48.3-14.8,55.9c23.5,6.2,62.4,0.8,76.2-15.7c13.7,16.5,52.6,22,76.2,15.7
	c22.5-7.6,1.7-27.7-14.8-55.9c-18.2-27.7-32.1-63.4-35.5-89.9c0-0.2-0.1-0.3-0.1-0.5c-1.8-10.4,11.8-16.1,17.9-7.4
	c0.1,0.1,0.2,0.3,0.3,0.4c16.3,21.1,31.8,56.2,38.5,88.6c8.3,31.6,7.8,60.5,29,50c21.1-12.2,44.7-43.6,42.7-65
	c21.4,2,52.7-21.7,65-42.8c10.5-21.2-18.4-20.7-50-29c-32.4-6.7-67.5-22.2-88.6-38.5c-0.1-0.1-0.3-0.2-0.4-0.3
	c-8.7-6.1-3-19.7,7.4-17.9c0.2,0,0.3,0.1,0.5,0.1c26.4,3.4,62.2,17.3,89.9,35.5c28.2,16.5,48.3,37.3,55.9,14.8
	C525.4,337.8,520,298.9,503.5,285.2z"/>
<linearGradient id="SVGID_1_" gradientUnits="userSpaceOnUse" x1="33.4048" y1="285.5734" x2="537.4048" y2="285.5734" gradientTransform="matrix(1 0 0 1.0002 0 -0.4137)">
	<stop  offset="5.984933e-02" style="stop-color:#111111"/>
	<stop  offset="0.2804" style="stop-color:#222222"/>
	<stop  offset="0.6002" style="stop-color:#333333"/>
	<stop  offset="1" style="stop-color:#444444"/>
</linearGradient>
<path class="st1" d="M230.8,537.2c-9.2,0-18.1-1-25.5-3c-0.3-0.1-0.7-0.2-1-0.3c-8.9-3-13.9-7.7-16.7-12.2c-2.1,0.5-4.1,0.6-5.7,0.6
	c-4.8,0-9.6-1.3-14.8-3.8c-0.3-0.2-0.6-0.3-0.9-0.5c-21.3-12.4-43.4-39.2-49.2-64.1c-12.5-2.8-23.9-9.5-32.1-15.4
	c-13.5-9.6-25.2-22-32.1-33.9c-0.2-0.3-0.3-0.6-0.5-0.9c-4.2-8.4-4.4-15.3-3.2-20.5c-4.6-2.9-9.3-8-12.2-16.7
	c-0.1-0.3-0.2-0.7-0.3-1c-6.3-23.8-2.9-58.5,10.6-80.2c-13.5-21.7-16.9-56.3-10.6-80.2c0.1-0.3,0.2-0.7,0.3-1
	c3-8.8,7.6-13.8,12.2-16.7c-1.2-5.2-1-12.1,3.2-20.5c0.2-0.3,0.3-0.6,0.5-0.9c12.3-21.1,39.2-43.5,64.2-49.3
	c5.8-24.9,27.9-51.8,49.2-64.2c0.3-0.2,0.6-0.3,0.9-0.5c5.2-2.6,10.1-3.8,14.8-3.8c1.6,0,3.5,0.2,5.7,0.6c2.8-4.5,7.8-9.2,16.7-12.2
	c0.3-0.1,0.7-0.2,1-0.3c7.5-2,16.3-3,25.5-3c17.5,0,39,3.7,54.6,13.6c15.6-9.8,37.2-13.6,54.6-13.6c9.2,0,18.1,1,25.5,3
	c0.3,0.1,0.7,0.2,1,0.3c8.9,3,13.9,7.7,16.7,12.2c2.1-0.5,4.1-0.6,5.7-0.6c4.8,0,9.6,1.3,14.8,3.8c0.3,0.2,0.6,0.3,0.9,0.5
	c21.3,12.4,43.4,39.2,49.2,64.1c12.5,2.8,23.9,9.5,32.1,15.4c13.5,9.6,25.2,22,32.1,33.9c0.2,0.3,0.3,0.6,0.5,0.9
	c4.2,8.4,4.4,15.3,3.2,20.5c4.6,2.9,9.3,8,12.2,16.7c0.1,0.3,0.2,0.7,0.3,1c6.3,23.8,2.9,58.5-10.6,80.2
	c13.5,21.7,16.9,56.3,10.6,80.2c-0.1,0.3-0.2,0.7-0.3,1c-3,8.8-7.6,13.8-12.2,16.7c1.2,5.2,1,12.1-3.2,20.5
	c-0.2,0.3-0.3,0.6-0.5,0.9c-12.3,21.1-39.2,43.5-64.2,49.3c-5.8,24.9-27.9,51.8-49.2,64.2c-0.3,0.2-0.6,0.3-0.9,0.5
	c-5.2,2.6-10.1,3.8-14.8,3.8c-1.6,0-3.5-0.2-5.7-0.6c-2.8,4.5-7.8,9.2-16.7,12.2c-0.3,0.1-0.7,0.2-1,0.3c-7.5,2-16.3,3-25.5,3
	c-17.5,0-39-3.7-54.6-13.6C269.8,533.5,248.2,537.2,230.8,537.2z"/>
<linearGradient id="SVGID_2_" gradientUnits="userSpaceOnUse" x1="408.182" y1="497.8663" x2="162.6271" y2="72.5527">
	<stop  offset="0" style="stop-color:#444444"/>
	<stop  offset="0.3998" style="stop-color:#333333"/>
	<stop  offset="0.7196" style="stop-color:#222222"/>
	<stop  offset="0.9402" style="stop-color:#111111"/>
</linearGradient>
<path class="st2" d="M503.5,285.2c16.5-13.7,21.9-52.6,15.7-76.2c-7.6-22.5-27.7-1.7-55.9,14.8c-27.7,18.2-63.4,32.1-89.9,35.5
	c-0.2,0-0.3,0.1-0.5,0.1c-10.4,1.8-16.1-11.8-7.4-17.9c0.1-0.1,0.3-0.2,0.4-0.3c21.1-16.3,56.2-31.8,88.6-38.5
	c31.6-8.3,60.5-7.8,50-29c-12.2-21.1-43.6-44.7-65-42.8c2-21.4-21.7-52.7-42.7-65c-21.2-10.5-20.7,18.4-29,50
	c-6.7,32.4-22.2,67.5-38.5,88.6c-0.1,0.1-0.2,0.3-0.3,0.4c-6.1,8.7-19.7,3-17.9-7.4c0-0.2,0.1-0.3,0.1-0.5
	c3.4-26.4,17.3-62.2,35.5-89.9C363.2,79.1,384,59,361.6,51.4c-23.5-6.2-62.4-0.8-76.2,15.7c-13.7-16.5-52.6-22-76.2-15.7
	c-22.5,7.6-1.7,27.7,14.8,55.9c18.2,27.7,32.1,63.4,35.5,89.9c0,0.2,0.1,0.3,0.1,0.5c1.8,10.4-11.8,16.1-17.9,7.4
	c-0.1-0.1-0.2-0.3-0.3-0.4c-16.3-21.1-31.8-56.2-38.5-88.6c-8.3-31.6-7.8-60.5-29-50c-21.1,12.2-44.7,43.6-42.7,65
	c-21.4-2-52.7,21.7-65,42.8c-10.5,21.2,18.4,20.7,50,29c32.4,6.7,67.5,22.2,88.6,38.5c0.1,0.1,0.3,0.2,0.4,0.3
	c8.7,6.1,3,19.7-7.4,17.9c-0.2,0-0.3-0.1-0.5-0.1c-26.4-3.4-62.2-17.3-89.9-35.5c-28.2-16.5-48.3-37.3-55.9-14.8
	c-6.2,23.5-0.8,62.4,15.7,76.2c-16.5,13.7-21.9,52.6-15.7,76.2c7.6,22.5,27.7,1.7,55.9-14.8c27.7-18.2,63.4-32.1,89.9-35.5
	c0.2,0,0.3-0.1,0.5-0.1c10.4-1.8,16.1,11.8,7.4,17.9c-0.1,0.1-0.3,0.2-0.4,0.3c-21.1,16.3-56.2,31.8-88.6,38.5
	c-31.6,8.3-60.5,7.8-50,29c12.2,21.1,43.6,44.7,65,42.8c-2,21.4,21.7,52.7,42.7,65c21.2,10.5,20.7-18.4,29-50
	c6.7-32.4,22.2-67.5,38.5-88.6c0.1-0.1,0.2-0.3,0.3-0.4c6.1-8.7,19.7-3,17.9,7.4c0,0.2-0.1,0.3-0.1,0.5
	c-3.4,26.4-17.3,62.2-35.5,89.9c-16.5,28.2-37.3,48.3-14.8,55.9c23.5,6.2,62.4,0.8,76.2-15.7c13.7,16.5,52.6,22,76.2,15.7
	c22.5-7.6,1.7-27.7-14.8-55.9c-18.2-27.7-32.1-63.4-35.5-89.9c0-0.2-0.1-0.3-0.1-0.5c-1.8-10.4,11.8-16.1,17.9-7.4
	c0.1,0.1,0.2,0.3,0.3,0.4c16.3,21.1,31.8,56.2,38.5,88.6c8.3,31.6,7.8,60.5,29,50c21.1-12.2,44.7-43.6,42.7-65
	c21.4,2,52.7-21.7,65-42.8c10.5-21.2-18.4-20.7-50-29c-32.4-6.7-67.5-22.2-88.6-38.5c-0.1-0.1-0.3-0.2-0.4-0.3
	c-8.7-6.1-3-19.7,7.4-17.9c0.2,0,0.3,0.1,0.5,0.1c26.4,3.4,62.2,17.3,89.9,35.5c28.2,16.5,48.3,37.3,55.9,14.8
	C525.4,337.8,520,298.9,503.5,285.2z"/>
<linearGradient id="SVGID_3_" gradientUnits="userSpaceOnUse" x1="506.0025" y1="285.2094" x2="64.8064" y2="285.2094">
	<stop  offset="5.984933e-02" style="stop-color:#111111"/>
	<stop  offset="0.2804" style="stop-color:#222222"/>
	<stop  offset="0.6002" style="stop-color:#333333"/>
	<stop  offset="1" style="stop-color:#444444"/>
</linearGradient>
<path class="st3" d="M230.8,505.9c-5.1,0-9.9-0.4-14.1-1.2c2.2-4.4,6.4-10.7,9.7-15.7c3.4-5.2,7.3-11.1,11.1-17.5
	c19.1-29.1,33.8-66.6,37.6-95.8l0-0.1c1.3-7.6-0.7-15.1-5.5-20.9c-4.9-5.8-12.3-9.3-19.9-9.3c-8.3,0-15.9,4-20.8,10.9l-0.1,0.1
	c-17.9,23.3-34,60.3-41.1,94.3c-1.8,7.1-3.3,14-4.5,20.2c-1.2,5.9-2.7,13.3-4.3,18c-16.6-11.3-33.2-35.7-32.1-48.2
	c0.4-4.6-1.2-9.2-4.5-12.5c-3-3-6.9-4.6-11.1-4.6c-0.5,0-1,0-1.4,0.1c-0.4,0-0.7,0-1.1,0c-13.1,0-36.1-16-47-32.1
	c4.7-1.5,12.1-3.1,18-4.3c6.1-1.3,13.1-2.7,20.2-4.5c34.1-7.1,71-23.2,94.3-41.1l0.1-0.1c9.2-6.5,13.2-18,9.8-28.6
	c-3.4-10.7-13.1-18-24.2-18c-1.5,0-3.1,0.1-4.6,0.4l-0.2,0c-29.2,3.8-66.7,18.6-95.8,37.6c-6.3,3.7-12.2,7.6-17.5,11.1
	c-5,3.3-11.4,7.5-15.7,9.7c-3.8-19.7,1.8-48.8,11.4-56.7c3.6-3,5.6-7.4,5.6-12c0-4.7-2.1-9.1-5.6-12c-9.6-8-15.2-37-11.4-56.7
	c4.4,2.2,10.7,6.4,15.7,9.7c5.2,3.4,11.1,7.3,17.5,11.1c29.1,19.1,66.6,33.8,95.8,37.6l0.2,0c1.5,0.3,3,0.4,4.5,0.4
	c11.1,0,20.8-7.2,24.2-18c3.4-10.7-0.6-22.2-9.7-28.6l-0.1-0.1c-23.3-17.9-60.3-34-94.3-41.1c-7.1-1.8-14-3.3-20.2-4.5
	c-5.9-1.2-13.3-2.7-18-4.3c10.9-16.1,34-32.1,47-32.1c0.4,0,0.8,0,1.1,0c0.5,0,1,0.1,1.4,0.1c4.1,0,8.1-1.6,11.1-4.6
	c3.3-3.3,4.9-7.9,4.5-12.5c-1.1-12.4,15.4-36.9,32.1-48.2c1.5,4.7,3.1,12.1,4.3,18c1.3,6.1,2.7,13.1,4.5,20.2
	c7.1,34.1,23.2,71,41.1,94.3l0.1,0.2c4.8,6.9,12.4,10.9,20.8,10.9c7.6,0,15-3.5,19.9-9.3c4.8-5.7,6.8-13.3,5.5-20.8l0-0.2
	c-3.8-29.2-18.6-66.7-37.6-95.8c-3.7-6.3-7.6-12.2-11.1-17.5c-3.3-5-7.5-11.3-9.7-15.7c4.2-0.8,9-1.2,14.1-1.2
	c20.9,0,37.5,6.5,42.6,12.6c3,3.6,7.4,5.6,12,5.6h0c4.7,0,9.1-2.1,12-5.6c5.1-6.1,21.7-12.6,42.6-12.6c5.1,0,9.9,0.4,14.1,1.2
	c-2.2,4.4-6.4,10.7-9.7,15.7c-3.4,5.2-7.3,11.1-11,17.5c-19.1,29.1-33.8,66.6-37.6,95.8l0,0.2c-1.3,7.5,0.7,15.1,5.5,20.8
	c4.9,5.8,12.3,9.3,19.9,9.3c8.3,0,15.9-4,20.8-10.9l0.1-0.1c17.9-23.3,34-60.3,41.1-94.3c1.8-7.1,3.3-14,4.5-20.2
	c1.2-5.9,2.7-13.3,4.3-18c16.6,11.3,33.2,35.7,32.1,48.2c-0.4,4.6,1.2,9.2,4.5,12.5c3,3,6.9,4.6,11.1,4.6c0.5,0,1,0,1.4-0.1
	c0.4,0,0.7,0,1.1,0c13.1,0,36.1,16,47,32.1c-4.7,1.5-12.1,3.1-18,4.3c-6.1,1.3-13.1,2.7-20.2,4.5c-34.1,7.1-71,23.2-94.3,41.1
	l-0.1,0.1c-9.2,6.4-13.1,17.9-9.7,28.6c3.4,10.7,13.1,18,24.2,18c1.5,0,3.1-0.1,4.6-0.4l0.2,0c29.2-3.8,66.7-18.6,95.8-37.6
	c6.3-3.7,12.2-7.6,17.5-11.1c5-3.3,11.3-7.5,15.7-9.7c3.8,19.7-1.8,48.8-11.4,56.7c-3.6,3-5.6,7.4-5.6,12c0,4.7,2.1,9.1,5.6,12
	c9.6,8,15.2,37,11.4,56.7c-4.4-2.2-10.7-6.4-15.7-9.7c-5.2-3.4-11.1-7.3-17.5-11.1c-29.1-19.1-66.6-33.8-95.8-37.6l-0.1,0
	c-1.6-0.3-3.1-0.4-4.7-0.4c-11.1,0-20.8,7.2-24.2,18c-3.4,10.7,0.6,22.2,9.7,28.6l0.1,0.1c23.3,17.9,60.3,34,94.3,41.1
	c7.1,1.8,14,3.3,20.2,4.5c5.9,1.2,13.3,2.7,18,4.3c-10.9,16.1-34,32.1-47,32.1c-0.4,0-0.8,0-1.1,0c-0.5,0-1-0.1-1.4-0.1
	c-4.1,0-8.1,1.6-11.1,4.6c-3.3,3.3-4.9,7.9-4.5,12.5c1.1,12.4-15.4,36.9-32.1,48.2c-1.5-4.7-3.1-12.1-4.3-18
	c-1.3-6.1-2.7-13.1-4.5-20.2c-7.1-34.1-23.2-71-41.1-94.3l-0.1-0.2c-4.8-6.9-12.4-10.9-20.8-10.9c-7.6,0-15,3.5-19.9,9.3
	c-4.8,5.7-6.8,13.3-5.5,20.8l0,0.2c3.8,29.2,18.6,66.7,37.6,95.8c3.7,6.3,7.6,12.2,11.1,17.5c3.3,5,7.5,11.3,9.7,15.7
	c-4.2,0.8-9,1.2-14.1,1.2c-20.9,0-37.5-6.5-42.6-12.6c-3-3.6-7.4-5.6-12-5.6h0c-4.7,0-9.1,2.1-12,5.6
	C268.3,499.4,251.6,505.9,230.8,505.9z"/>
</svg>
