<!-- Generator: Adobe Illustrator 19.0.0, SVG Export Plug-In . SVG Version: 6.00 Build 0)  -->
<svg version="1.1" id="svgflower4-1" xmlns="http://www.w3.org/2000/svg" xmlns:xlink="http://www.w3.org/1999/xlink" x="0px" y="0px"
	 viewBox="0 0 570.4 570.4" style="enable-background:new 0 0 570.4 570.4;" xml:space="preserve" onclick="playpalette();">
<style type="text/css">
	.svgflower4-1-st0{fill:url(#svgflower4-1-st0);}
	.svgflower4-1-st1{fill:url(#svgflower4-1-st1);}
	.svgflower4-1-st2{fill:url(#svgflower4-1-st2);}
</style>
<radialGradient id="svgflower4-1-st0" cx="285.0645" cy="285.2094" r="264.9807" gradientUnits="userSpaceOnUse">
	<stop  offset="0.7865" style="stop-color:#222222"/>
	<stop  offset="1" style="stop-color:#111111"/>
</radialGradient>
<path class="svgflower4-1-st0" d="M371.4,537.2c-3.6,0-7.3-0.3-11-1c-3.4-0.6-7-1.5-10.6-2.7c-14.2-4.7-27.9-14.2-39.4-26.7
	c-7.7,3.7-16.1,5.7-24.6,5.8c-0.3,0-0.7,0-1,0c-8.7,0-17.2-2-25.1-5.8c-11.6,12.6-25.4,22.2-39.9,26.8c-7,2.3-14.2,3.5-21.1,3.5
	c-23.1,0.1-42.8-13.1-55.5-32.3c-17.9-26.6-22.3-60.7-16.4-92c2.9-15.2,9.4-35.1,22.7-56.3c-19.1,2.9-38.5,3.5-57.6,1
	c-37.1-4.5-72.1-21.7-81.4-50c-8.3-22.2,2.3-47.4,26.3-67c15.9-13.2,36-23,55.9-28.8c1.3-10.6,6.2-20.7,13.4-29.8
	c6.9-8.9,15.3-16.3,24.5-22c-2.8-15.1-1.4-30.6,2.7-45.7c6.4-22.6,17-43.4,31.8-60c11.1-12.6,24.8-21.1,40.5-21.1
	c9.1,0,18.5,2.8,27.6,8.5c21.4,12.9,40.1,41.3,51.9,71.5c11.8-30.2,30.6-58.6,52.1-71.6c9-5.6,18.4-8.5,27.5-8.4
	c15.7,0,29.5,8.5,40.6,21.2c14.8,16.7,25.4,37.5,31.7,60.1c4.1,15,5.4,30.5,2.6,45.6c9.1,5.7,17.6,13.1,24.5,21.9
	c7.2,9.2,12.1,19.3,13.4,29.9c19.9,5.8,40.2,15.6,56.1,28.9c23.9,19.6,34.4,44.7,26.1,66.9c-9.3,28.2-44.3,45.4-81.4,49.9
	c-19,2.4-38.4,1.9-57.5-1.1c13.2,21.2,19.7,41.1,22.6,56.1c5.9,31.5,1.5,65.8-16.5,92.4C414.1,524.2,394.5,537.3,371.4,537.2z"/>
<radialGradient id="svgflower4-1-st1" cx="285.0641" cy="285.2092" r="230.9775" gradientUnits="userSpaceOnUse">
	<stop  offset="0.4513" style="stop-color:#111111"/>
	<stop  offset="1" style="stop-color:#333333"/>
</radialGradient>
<path class="svgflower4-1-st1" d="M371.4,503.4c-2.2,0-4.4-0.2-6.7-0.6c-2-0.3-4.2-0.9-6.4-1.6c-16.3-5.2-31.6-20.3-42.1-39.7
	c-8.2,11.1-18.9,17.4-30.7,17.4c-0.1,0-0.7,0-0.8,0c-12,0.1-22.7-6.3-31-17.4c-10.4,19.5-25.9,34.6-42.3,39.8
	c-4.3,1.4-8.6,2.1-12.8,2.1c-14.2,0-26.4-8.2-34.5-21.1c-12.6-19.1-15.3-46.1-10.2-71.3c3.6-18.6,14.2-45.6,36.3-72
	c5.4-6.9,11.1-13.4,16.3-19.1c-5.9,2-12.2,4-18.8,5.8c-1,0.3-2,0.6-3,0.9c-8.8,2.6-18.1,4.8-27.4,6.4c-18.1,3.1-36.5,3.9-54,1.5
	c-28.5-3.6-53.5-16.4-59.6-35.9c-5.4-14.6,1.2-30.7,17-43.6c14.2-11.8,34.2-19.8,53.7-23c4.7-0.8,9-1.3,13-1.6
	c-5.9-12.6-3.8-24.9,4.3-35.4c10.1-13.5,23.9-18.3,32.6-20.3c-0.5-0.9-1-1.9-1.5-2.8c-7.9-15.1-9.5-32.2-6.3-48.5
	c3.2-15.8,9.9-30.3,19.9-41.4c7.8-9.1,17.7-15,29.1-15c6.7,0,13.6,2,20.4,6.1c20.2,11.7,38.2,41.9,48.2,72.7
	c4.5,12.5,7.9,24.6,10.9,35.6c3-11.1,6.4-23.2,10.9-35.6c10.1-30.8,28-60.9,48.3-72.7c6.7-4.1,13.7-6.1,20.3-6.1
	c11.4,0,21.3,5.9,29.1,15.1c10,11.2,16.7,25.7,19.9,41.5c3.2,16.2,1.6,33.3-6.3,48.4c-0.5,1-1,1.9-1.5,2.9c8.6,2,22.4,6.8,32.6,20.3
	c8.1,10.5,10.2,22.8,4.3,35.5c3.9,0.3,8.2,0.8,12.9,1.6c19.5,3.3,39.5,11.3,53.8,23.1c15.8,12.9,22.3,28.9,16.8,43.6
	c-6.1,19.4-31,32.2-59.6,35.8c-17.5,2.3-35.9,1.5-53.9-1.5c0,0,0,0,0,0c-9.3-1.6-18.6-3.8-27.5-6.4c-1-0.3-2-0.6-2.9-0.9
	c-6.6-1.9-12.9-3.9-18.8-5.8c5.3,5.8,10.9,12.2,16.4,19.2c22.1,26.4,32.7,53.3,36.2,71.8c5.1,25.3,2.4,52.4-10.2,71.5
	C397.8,495.3,385.6,503.5,371.4,503.4z"/>
<radialGradient id="svgflower4-1-st2" cx="285.0651" cy="285.2128" r="196.9781" gradientUnits="userSpaceOnUse">
	<stop  offset="0" style="stop-color:#333333"/>
	<stop  offset="0.8363" style="stop-color:#222222"/>
</radialGradient>
<path class="svgflower4-1-st2" d="M485.6,269.9c-6.4-5.3-16-9.4-26.2-11.3c-6.2-1.2-12-1.7-17.9-2.2c-5.1-0.4-10.2-0.8-15.6-1.6
	c-17-2.6-19.3-6-20.4-7.5c-1.5-2.7-1.6-5.9-0.2-10.5c0,0,0-0.1,0-0.1c1.3-4.6,3.8-8.3,5.8-11.3c2.7-3.9,6.9-10.5,1.7-17.3
	c-4.8-6.9-13.7-7.8-18.8-8.3c-4-0.4-8.8-0.9-13.6-2.8c-0.1,0-0.1,0-0.2-0.1c-4.8-1.8-7.5-3.8-9-6.5c-0.7-1.6-2.3-5.6,4-17.6
	c2-3.7,4.1-6.9,6.2-10c2.4-3.6,4.7-7,6.5-11.1c3.1-6.6,4.2-13.9,3.4-21c-0.9-8-4-15.2-9.2-21c-7.3-9-18.8-12.2-30.8-5.2
	c-9.6,5-24.6,21.5-35.9,51.3c-6.6,15.8-11.7,32.2-15.9,45.4c-1.5,4.6-2.7,8.7-4,12.5c0,0.1,0,0.1-0.1,0.2
	c-3.9,12.3-7.5,21.8-10.7,28.9c-3.2-7-6.8-16.7-10.7-28.9c0-0.1,0-0.1-0.1-0.2c-1.2-3.8-2.5-7.9-4-12.4
	c-4.2-13.2-9.3-29.7-15.9-45.5c-11.3-29.7-26.3-46.3-35.9-51.3c-12-6.9-23.4-3.8-30.7,5.2c-5.2,5.8-8.3,12.9-9.2,20.9
	c-0.8,7.1,0.3,14.4,3.4,21.1c1.8,4,4.1,7.5,6.5,11.1c2.1,3.1,4.2,6.3,6.2,10c6.3,12,4.8,16,4,17.6c-1.5,2.7-4.2,4.7-9,6.5
	c0,0-0.1,0-0.1,0c-4.8,1.9-9.6,2.4-13.6,2.8c-5.1,0.5-14.1,1.4-18.9,8.3c-5.1,6.8-0.9,13.4,1.7,17.3c2,3,4.5,6.8,5.8,11.3
	c0,0,0,0.1,0,0.1c1.4,4.6,1.3,7.7-0.2,10.4c-1.1,1.5-3.4,5-20.4,7.5c-5.3,0.8-10.4,1.2-15.5,1.6c-5.9,0.5-11.7,0.9-17.9,2.2
	c-10.2,2-19.8,6-26.2,11.3c-7.3,6-9.9,13-7.3,19.9c3,10.4,17.6,18.2,35.4,21c13.9,2.4,36.8,2.4,63.6-4c1.1-0.3,2.3-0.5,3.4-0.8
	c15.6-3.4,30.3-7.8,42.3-11.1c4.2-1.1,7.9-2.1,11.4-3c0,0,0.1,0,0.1,0c11.2-2.9,20.4-4.5,27.5-5.3c-4,6.1-9.9,13.7-17.5,22.6
	c0,0-0.1,0.1-0.1,0.1c-2.3,2.8-4.9,5.8-7.7,9.1c-8.2,9.6-18.3,21.3-27.3,34.2c-17.3,22.8-25.4,45.1-28.2,60
	c-3.6,18.1-2.1,36.7,4.9,47.5c4.5,7.7,10.7,11,18,8.7c6.4-1.9,13.1-8.3,18.4-17.2c3.3-5.4,5.9-11.1,8.5-16.8c2.3-5,4.6-10,7.3-15
	c8.8-15.7,12.9-15.6,14.6-15.6c3,0.5,5.8,2.8,9.4,7.9c0,0,0,0.1,0.1,0.1c3.6,5.1,5.9,10.9,7.9,15.9c2.5,6.2,6.9,17.2,15.4,17.2
	c0.1,0,0.2,0,0.3,0c0.1,0,0.2,0,0.2,0c8.5,0,12.9-11,15.4-17.2c2-4.9,4.4-10.8,7.9-15.9c0-0.1,0.1-0.1,0.1-0.2
	c3.5-5.1,6.4-7.5,9.3-7.9c1.7,0,5.8,0,14.6,15.6c2.7,5,5,10,7.3,15c2.6,5.8,5.2,11.4,8.5,16.8c5.4,8.9,12,15.3,18.4,17.2
	c0.8,0.2,1.5,0.4,2.2,0.5c6.3,1.1,11.7-2.3,15.8-9.2c7-10.8,8.5-29.4,5-47.5c-2.7-14.9-10.9-37.2-28.2-60
	c-9.1-12.9-19.1-24.6-27.3-34.2c-2.9-3.3-5.4-6.3-7.8-9.1c0,0-0.1-0.1-0.1-0.1c-7.6-9-13.5-16.5-17.5-22.6
	c7.1,0.7,16.3,2.4,27.5,5.2c0.1,0,0.1,0,0.1,0c3.5,0.9,7.2,1.8,11.4,3c12,3.3,26.8,7.6,42.4,11.1c1.2,0.3,2.3,0.6,3.5,0.8
	c26.7,6.4,49.6,6.4,63.5,4c17.8-2.8,32.4-10.6,35.4-21C495.5,282.9,492.9,276,485.6,269.9z"/>
</svg>
